<?xml version="1.0" encoding="UTF-8" standalone="no"?>
<!-- Created with Inkscape (http://www.inkscape.org/) -->

<svg
   width="120"
   height="150"
   viewBox="0 0 31.749999 39.6875"
   version="1.1"
   id="svg1"
   inkscape:version="1.4 (86a8ad7, 2024-10-11)"
   sodipodi:docname="logo_boca_immusic.svg"
   inkscape:export-filename="logo_boca_immusic.png"
   inkscape:export-xdpi="96"
   inkscape:export-ydpi="96"
   xmlns:inkscape="http://www.inkscape.org/namespaces/inkscape"
   xmlns:sodipodi="http://sodipodi.sourceforge.net/DTD/sodipodi-0.dtd"
   xmlns:xlink="http://www.w3.org/1999/xlink"
   xmlns="http://www.w3.org/2000/svg"
   xmlns:svg="http://www.w3.org/2000/svg">
  <sodipodi:namedview
     id="namedview1"
     pagecolor="#ffffff"
     bordercolor="#cccccc"
     borderopacity="1"
     inkscape:showpageshadow="0"
     inkscape:pageopacity="1"
     inkscape:pagecheckerboard="0"
     inkscape:deskcolor="#d1d1d1"
     inkscape:document-units="px"
     inkscape:zoom="1.2498413"
     inkscape:cx="35.20447"
     inkscape:cy="148.0188"
     inkscape:window-width="1024"
     inkscape:window-height="701"
     inkscape:window-x="-9"
     inkscape:window-y="-9"
     inkscape:window-maximized="1"
     inkscape:current-layer="layer1" />
  <defs
     id="defs1">
    <linearGradient
       inkscape:collect="always"
       xlink:href="#linearGradient289"
       id="linearGradient290"
       x1="513.32788"
       y1="132.15538"
       x2="558.3067"
       y2="132.15538"
       gradientUnits="userSpaceOnUse" />
    <linearGradient
       id="linearGradient289"
       inkscape:collect="always">
      <stop
         style="stop-color:#ff0000;stop-opacity:1;"
         offset="0.07816092"
         id="stop289" />
      <stop
         style="stop-color:#000000;stop-opacity:0.99652779;"
         offset="0.74252874"
         id="stop290" />
    </linearGradient>
    <linearGradient
       inkscape:collect="always"
       xlink:href="#linearGradient288"
       id="linearGradient287"
       x1="382.00238"
       y1="94.71048"
       x2="390.01553"
       y2="95.811867"
       gradientUnits="userSpaceOnUse"
       gradientTransform="matrix(0.27333564,0,0,0.27020393,-98.24923,-12.974659)" />
    <linearGradient
       id="linearGradient288"
       inkscape:collect="always">
      <stop
         style="stop-color:#120000;stop-opacity:1;"
         offset="0"
         id="stop287" />
      <stop
         style="stop-color:#ff0202;stop-opacity:0.97916669;"
         offset="1"
         id="stop288" />
    </linearGradient>
    <linearGradient
       inkscape:collect="always"
       xlink:href="#linearGradient296"
       id="linearGradient297"
       x1="394.04822"
       y1="76.858612"
       x2="395.2634"
       y2="77.042183"
       gradientUnits="userSpaceOnUse"
       gradientTransform="matrix(0.27333564,0,0,0.27020393,-98.24923,-12.974659)" />
    <linearGradient
       id="linearGradient296"
       inkscape:collect="always">
      <stop
         style="stop-color:#830000;stop-opacity:1;"
         offset="0"
         id="stop296" />
      <stop
         style="stop-color:#c70000;stop-opacity:1;"
         offset="1"
         id="stop297" />
    </linearGradient>
    <linearGradient
       inkscape:collect="always"
       xlink:href="#linearGradient289"
       id="linearGradient1"
       gradientUnits="userSpaceOnUse"
       x1="513.32788"
       y1="132.15538"
       x2="558.3067"
       y2="132.15538" />
    <linearGradient
       inkscape:collect="always"
       xlink:href="#linearGradient289"
       id="linearGradient2"
       gradientUnits="userSpaceOnUse"
       x1="513.32788"
       y1="132.15538"
       x2="558.3067"
       y2="132.15538" />
    <linearGradient
       inkscape:collect="always"
       xlink:href="#linearGradient289"
       id="linearGradient3"
       gradientUnits="userSpaceOnUse"
       x1="513.32788"
       y1="132.15538"
       x2="558.3067"
       y2="132.15538" />
    <linearGradient
       inkscape:collect="always"
       xlink:href="#linearGradient289"
       id="linearGradient4"
       gradientUnits="userSpaceOnUse"
       x1="513.32788"
       y1="132.15538"
       x2="558.3067"
       y2="132.15538" />
    <linearGradient
       inkscape:collect="always"
       xlink:href="#linearGradient289"
       id="linearGradient5"
       gradientUnits="userSpaceOnUse"
       x1="513.32788"
       y1="132.15538"
       x2="558.3067"
       y2="132.15538" />
  </defs>
  <g
     inkscape:label="Camada 1"
     inkscape:groupmode="layer"
     id="layer1">
    <g
       id="g124"
       transform="matrix(0.30947758,0,0,0.46726403,-166.60258,-78.657428)"
       style="fill:url(#linearGradient290);stroke-width:2.6297">
      <path
         id="path47"
         style="fill:url(#linearGradient1);fill-opacity:1;fill-rule:evenodd;stroke:none;stroke-width:2.10374;stroke-linecap:round;stroke-linejoin:round;stroke-dasharray:none;stroke-opacity:1;paint-order:fill markers stroke"
         d="m 514.51967,122.8184 c 10.92437,-4.74981 -1.06961,12.55307 4.68715,12.47755 3.55869,-0.0467 1.98103,-8.04283 4.13049,-11.36578 1.53136,-2.3674 5.26023,-1.11897 5.26023,-1.11897 -1.73802,5.86075 -4.55718,18.92218 -9.49478,19.49939 -2.08524,0.24377 -2.65503,-0.30117 -3.56854,-2.00535 -2.08836,-3.89592 -3.20291,-16.53536 -1.01455,-17.48684 z"
         sodipodi:nodetypes="ssscsss" />
      <path
         id="path48"
         style="fill:url(#linearGradient2);fill-opacity:1;fill-rule:evenodd;stroke:none;stroke-width:2.10374;stroke-linecap:round;stroke-linejoin:round;stroke-dasharray:none;stroke-opacity:1;paint-order:fill markers stroke"
         d="m 529.12197,125.49256 c -2.08504,7.71231 1.3637,5.72465 4.20581,6.2491 1.16115,0.21427 0.7552,2.04991 -0.41413,2.42471 -1.02673,0.3291 -6.45105,0.0409 -7.75366,1.40909 -1.40967,1.48059 -1.38447,5.43015 -1.38447,5.43015 2.72009,-1.79258 10.21438,1.08012 12.71657,-9.1e-4 2.17877,-0.94148 1.94587,-7.95553 1.18501,-10.27182 -1.25835,-3.83082 -5.73303,-1.01119 -4.81902,-3.31507 1.1447,-2.88536 4.93478,0.57535 5.70477,-1.42252 0.76999,-1.99789 0.47357,-4.05033 0.47357,-4.05033 0,0 -1.08065,1.38223 -2.82724,0.92248 -4.2877,-1.12866 -6.194,-0.67872 -7.08721,2.62512 z"
         sodipodi:nodetypes="sssscsssscss" />
      <path
         id="path49"
         style="fill:url(#linearGradient3);fill-opacity:1;fill-rule:evenodd;stroke:none;stroke-width:2.10374;stroke-linecap:round;stroke-linejoin:round;stroke-dasharray:none;stroke-opacity:1;paint-order:fill markers stroke"
         d="m 546.56749,126.21831 c -2.02536,3.5503 -1.9756,11.75538 0.40247,15.0662 1.4186,1.97501 8.30043,-1.90937 10.83207,0.83849 0,0 1.29393,-4.99518 -0.26204,-7.03317 -2.23205,-2.92351 -7.32229,2.41143 -7.68882,-1.82059 -0.61297,-7.07761 5.48317,-6.22172 7.78441,-4.07686 0,0 1.01762,-2.07447 -0.39528,-4.29175 -0.69427,-1.08951 -1.59043,-1.65678 -2.49138,-1.9162 -4.65197,-2.04745 -6.79629,0.85305 -8.18143,3.23388 z"
         sodipodi:nodetypes="cscsscscc" />
      <path
         id="path50"
         style="fill:url(#linearGradient4);fill-opacity:1;fill-rule:evenodd;stroke:none;stroke-width:2.10374;stroke-linecap:round;stroke-linejoin:round;stroke-dasharray:none;stroke-opacity:1;paint-order:fill markers stroke"
         d="m 539.3699,139.41438 c 0.35619,2.0205 1.71493,2.49553 2.73623,2.42231 0.83248,-0.0597 3.13113,0.63394 2.18743,-3.77831 -0.34182,-1.59813 -0.33032,-4.03654 -0.23381,-5.78597 0.14387,-2.60784 -0.96046,-3.50519 -2.05197,-3.51551 -2.99798,-0.0284 -2.96428,7.51947 -2.63788,10.65748 z"
         sodipodi:nodetypes="ssssss" />
      <ellipse
         style="fill:url(#linearGradient5);fill-opacity:1;fill-rule:evenodd;stroke:none;stroke-width:3.41858;stroke-linecap:round;stroke-linejoin:round;stroke-dasharray:none;stroke-opacity:1;paint-order:fill markers stroke"
         id="ellipse50"
         cx="542.34039"
         cy="125.20617"
         rx="2.0987513"
         ry="2.9466748" />
    </g>
    <g
       id="g5"
       transform="translate(-15.877016,-3.9163306)">
      <path
         style="fill:url(#linearGradient287);fill-opacity:1;fill-rule:evenodd;stroke:none;stroke-width:0;stroke-linecap:round;stroke-linejoin:round;stroke-opacity:1;paint-order:fill markers stroke"
         d="M 6.5029367,19.470724 C 7.6523595,19.583418 7.5913537,16.122278 8.0764643,12.119721 8.2413377,10.759409 9.9781533,6.747378 8.3779153,6.5550847 7.4043976,6.4381016 6.7754414,11.710846 6.5034697,13.573225 6.5923338,14.76599 4.3607916,19.260694 6.502923,19.470724 Z"
         id="path46"
         sodipodi:nodetypes="sssss" />
      <path
         style="fill:url(#linearGradient297);fill-opacity:1;fill-rule:evenodd;stroke:none;stroke-width:1.3;stroke-linecap:round;stroke-linejoin:round;stroke-dasharray:none;stroke-opacity:1;paint-order:fill markers stroke"
         d="M 9.1109933,9.8139252 C 9.8783448,9.2001353 10.889126,6.6441445 10.03568,6.0465269 8.9392975,5.2787935 9.7414693,8.2056449 9.1109933,9.8139252 Z"
         id="path51"
         sodipodi:nodetypes="csc"
         inkscape:transform-center-x="0.56933709"
         inkscape:transform-center-y="-1.85177" />
    </g>
    <g
       id="g7"
       transform="matrix(1.1696718,0,0,1.014114,-6.0143193,-0.15093755)"
       style="stroke-width:0.918173">
      <g
         id="g6"
         transform="matrix(1.4858362,0,0,1.4805248,-5.7393037,-10.072327)"
         style="stroke-width:0.247623;stroke-dasharray:none">
        <path
           style="fill:#f9f9f9;fill-opacity:1;fill-rule:evenodd;stroke:none;stroke-width:0.247623;stroke-linecap:round;stroke-linejoin:round;stroke-dasharray:none;stroke-opacity:1;paint-order:fill markers stroke"
           d="m 17.542438,12.398201 c 0,0 -3.430999,-1.829865 -4.849146,0.320227 -1.418147,2.15009 -4.666162,6.496021 -4.254442,7.365207 0.41172,0.869184 2.195842,6.130047 3.568241,6.313034 1.372399,0.182985 4.345933,0.320227 5.215121,-0.457466 0.869185,-0.777693 2.744801,-4.620409 2.744801,-6.130049 0,-1.509637 -2.424575,-7.410953 -2.424575,-7.410953 z"
           id="path218" />
        <path
           id="path44"
           style="fill:#ff0000;fill-opacity:1;fill-rule:nonzero;stroke:#c70000;stroke-width:0.247623;stroke-linecap:round;stroke-linejoin:round;stroke-dasharray:none;stroke-opacity:1;paint-order:fill markers stroke"
           d="m 19.394413,30.899501 c 1.687569,-1.204963 -1.164787,-8.487424 1.16916,-10.829681 0,0 -0.269377,-0.646033 -2.244257,0.242408 -1.974878,0.888439 -1.530918,3.771269 -1.800222,4.094335 -0.246603,0.295836 -0.602568,-2.086017 -2.023438,-1.913598 -1.420867,0.17242 -1.653954,2.944618 -1.923252,2.621549 -0.269307,-0.32307 -0.896577,-3.954243 -2.8714595,-4.842687 -1.9748746,-0.888439 -2.2442551,-0.242408 -2.2442551,-0.242408 2.3339475,2.342255 1.8482956,11.132413 3.4641056,12.424695 2.141024,2.25027 3.075493,-2.183866 3.979204,-4.015892 1.306457,0.526492 1.83968,4.356795 4.494417,2.461261 z"
           sodipodi:nodetypes="scsszsscscss" />
        <path
           id="path45"
           style="fill:#ff0000;fill-opacity:1;fill-rule:nonzero;stroke:#c70000;stroke-width:0.247623;stroke-linecap:round;stroke-linejoin:round;stroke-dasharray:none;stroke-opacity:1;paint-order:fill markers stroke"
           d="m 19.513082,9.0482496 c 1.687571,1.2093964 -1.164785,8.5186444 1.169163,10.8695134 0,0 -0.269378,0.648408 -2.244261,-0.2433 -1.974874,-0.891708 -1.078555,-4.195527 -1.347859,-4.519785 -0.2466,-0.296924 -0.996994,3.052467 -2.572736,3.183002 -1.198369,0.190456 -1.556994,-4.588263 -1.826297,-4.264007 -0.269304,0.324258 -0.896574,4.749602 -2.8714542,5.64131 C 7.8447605,20.606691 7.57538,19.958288 7.57538,19.958288 9.9093274,17.607414 9.4236756,8.7849273 11.039486,7.4878954 c 2.141024,-2.2585471 3.075496,2.1918959 3.979206,4.0306576 1.306454,-0.528426 1.839677,-4.3728198 4.494414,-2.4703088 z"
           sodipodi:nodetypes="scsscsscscss" />
      </g>
      <g
         id="g123"
         transform="matrix(0.20797534,0.0169758,-0.01917541,0.37404267,-63.944006,-23.876136)"
         style="stroke-width:0.884833;stroke-dasharray:none">
        <g
           id="g95"
           transform="matrix(0.57486403,-0.74474221,-0.66302124,-0.6588486,237.00345,454.71446)"
           style="stroke-width:0.947269;stroke-dasharray:none">
          <path
             style="fill-rule:evenodd;stroke-width:0.947269;stroke-linecap:round;stroke-linejoin:round;stroke-dasharray:none;paint-order:fill markers stroke"
             d="m 458.03516,55.958984 a 0.30670801,0.30670801 0 0 0 -0.35938,0.242188 c 0,0 -2.54237,13.013337 -15.38672,22.791015 -6.81775,5.189972 -12.21229,6.801175 -17.41406,7.507813 -5.20177,0.706638 -10.2277,0.489536 -16.20703,2.013672 -9.37096,2.388666 -13.73202,5.102993 -16.88477,7.908203 a 0.30670801,0.30670801 0 0 0 -0.0254,0.433594 0.30670801,0.30670801 0 0 0 0.43164,0.02539 c 3.0904,-2.749728 7.3231,-5.398928 16.63086,-7.771484 5.8858,-1.500296 10.86887,-1.286073 16.13867,-2.001953 5.26981,-0.715881 10.80759,-2.379258 17.70118,-7.626953 13.02235,-9.913186 15.61718,-23.160157 15.61718,-23.160157 a 0.30670801,0.30670801 0 0 0 -0.24218,-0.361328 z"
             id="path91" />
          <g
             id="g94"
             transform="matrix(1.0101156,0,0,1,-4.6676708,0)"
             style="stroke-width:0.942516;stroke-dasharray:none">
            <path
               style="fill-rule:evenodd;stroke-width:0.942516;stroke-linecap:round;stroke-linejoin:round;stroke-dasharray:none;paint-order:fill markers stroke"
               d="m 468.90234,72.113281 a 0.30516839,0.30516839 0 0 0 -0.19726,0.126953 c 0,0 -8.42272,12.21018 -22.59571,19.996094 -7.51004,4.125636 -13.08472,4.923313 -18.33398,4.853516 -5.24926,-0.0698 -10.18751,-1.026146 -16.32617,-0.402344 -4.57517,0.464922 -7.42042,0.832409 -9.58399,1.365234 -2.16356,0.532825 -3.64338,1.237515 -5.42968,2.337896 a 0.30516839,0.30516839 0 0 0 -0.0996,0.41992 0.30516839,0.30516839 0 0 0 0.41992,0.0996 c 1.75776,-1.082794 3.14972,-1.744993 5.25586,-2.263676 2.10613,-0.518682 4.92997,-0.887361 9.49805,-1.351562 6.04312,-0.614094 10.94024,0.333591 16.25781,0.404297 5.31756,0.07071 11.04161,-0.756444 18.63476,-4.927735 14.3195,-7.866404 22.80664,-20.183593 22.80664,-20.183593 a 0.30516839,0.30516839 0 0 0 -0.0781,-0.425782 0.30516839,0.30516839 0 0 0 -0.22852,-0.04883 z"
               id="path89" />
            <path
               style="fill-rule:evenodd;stroke-width:0.942516;stroke-linecap:round;stroke-linejoin:round;stroke-dasharray:none;paint-order:fill markers stroke"
               d="m 464.50977,66.048828 a 0.30516839,0.30516839 0 0 0 -0.40821,0.140625 c 0,0 -5.62498,11.548115 -19.26953,20.224609 -7.23057,4.597879 -12.74141,5.751238 -17.98437,6.017579 -5.24296,0.26634 -10.23416,-0.372869 -16.32032,0.642578 -8.57142,1.430102 -12.67455,3.100285 -16.15039,5.404297 a 0.30516839,0.30516839 0 0 0 -0.0859,0.423828 0.30516839,0.30516839 0 0 0 0.42382,0.08594 c 3.40535,-2.257284 7.38723,-3.889836 15.91407,-5.3125 5.99142,-0.999643 10.93881,-0.364959 16.25,-0.634765 5.31118,-0.269807 10.97066,-1.462568 18.28125,-6.111329 13.78762,-8.767473 19.49023,-20.474609 19.49023,-20.474609 a 0.30516839,0.30516839 0 0 0 -0.14062,-0.40625 z"
               id="path90" />
            <path
               style="fill-rule:evenodd;stroke-width:0.942516;stroke-linecap:round;stroke-linejoin:round;stroke-dasharray:none;paint-order:fill markers stroke"
               d="m 451.49805,48.833984 a 0.30516839,0.30516839 0 0 0 -0.2793,0.328125 c 0,0 1.11993,13.700554 -11.05078,24.261719 -6.47175,5.615875 -11.7524,7.569243 -16.89844,8.607422 -5.14604,1.038179 -10.17564,1.145168 -16.04492,3.048828 -10.11089,3.279397 -14.21265,6.141382 -17.00391,9.316406 a 0.30516839,0.30516839 0 0 0 0.0293,0.429688 0.30516839,0.30516839 0 0 0 0.42969,-0.02734 c 2.71647,-3.089957 6.67425,-5.876372 16.73242,-9.138672 5.77793,-1.874031 10.76551,-1.979561 15.97851,-3.03125 5.21301,-1.051688 10.63437,-3.066119 17.17774,-8.74414 12.38256,-10.744997 11.25977,-24.771485 11.25976,-24.771485 a 0.30516839,0.30516839 0 0 0 -0.33007,-0.279297 z"
               id="path92" />
            <path
               style="fill-rule:evenodd;stroke-width:0.942516;stroke-linecap:round;stroke-linejoin:round;stroke-dasharray:none;paint-order:fill markers stroke"
               d="m 445.50391,45.816406 a 0.30516839,0.30516839 0 0 0 -0.24805,0.353516 c 0,0 0.46168,2.554182 -0.49024,6.572265 -0.95191,4.018084 -3.31904,9.471881 -9.01367,15.19336 -6.04469,6.073176 -11.16805,8.405466 -16.22461,9.816406 -5.05656,1.41094 -10.06653,1.884046 -15.78125,4.210938 -9.8446,4.008486 -14.19758,7.221259 -16.11328,9.490234 -0.95784,1.134488 -1.30531,2.039694 -1.39844,2.681641 -0.0466,0.320973 -0.0285,0.575726 0.004,0.753906 0.0324,0.17818 0.0898,0.302734 0.0898,0.302734 a 0.30516839,0.30516839 0 0 0 0.41016,0.136719 0.30516839,0.30516839 0 0 0 0.13867,-0.408203 c 0,0 -0.0179,-0.02443 -0.0391,-0.140625 -0.0211,-0.116193 -0.0351,-0.301568 0.002,-0.556641 0.074,-0.510145 0.35797,-1.306898 1.25977,-2.375 1.80359,-2.136203 6.07992,-5.329244 15.87695,-9.318359 5.62578,-2.290676 10.59248,-2.760152 15.71485,-4.189453 5.12236,-1.429301 10.3806,-3.834227 16.49218,-9.97461 5.77187,-5.79908 8.20003,-11.3637 9.17578,-15.482422 0.97576,-4.118721 0.49805,-6.820312 0.49805,-6.820312 a 0.30516839,0.30516839 0 0 0 -0.35351,-0.246094 z"
               id="path93" />
          </g>
        </g>
        <g
           id="g96"
           transform="matrix(0.36138613,0,0,0.40539437,323.43503,58.679669)"
           style="stroke-width:2.31173;stroke-dasharray:none">
          <g
             id="path95"
             style="stroke-width:2.31173;stroke-dasharray:none">
            <path
               style="fill-rule:evenodd;stroke-width:2.31173;stroke-linecap:round;stroke-linejoin:round;stroke-dasharray:none;paint-order:fill markers stroke"
               d="m 262.14731,49.555191 a 1.3851902,1.5583394 0 0 1 -1.38519,1.558339 1.3851902,1.5583394 0 0 1 -1.38519,-1.558339 1.3851902,1.5583394 0 0 1 1.38519,-1.558339 1.3851902,1.5583394 0 0 1 1.38519,1.558339 z"
               id="path172" />
            <path
               style="fill-rule:evenodd;stroke-width:2.31173;stroke-linecap:round;stroke-linejoin:round;stroke-dasharray:none;paint-order:fill markers stroke"
               d="m 260.76172,47.435547 c -1.10633,0 -1.94531,0.988814 -1.94531,2.11914 0,1.130327 0.83898,2.121094 1.94531,2.121094 1.10633,0 1.94726,-0.990767 1.94726,-2.121094 0,-1.130326 -0.84093,-2.11914 -1.94726,-2.11914 z m 0,1.123047 c 0.4237,0 0.82422,0.405126 0.82422,0.996093 0,0.590968 -0.40052,0.998047 -0.82422,0.998047 -0.42371,0 -0.82422,-0.407079 -0.82422,-0.998047 0,-0.590967 0.40051,-0.996093 0.82422,-0.996093 z"
               id="path173" />
          </g>
          <path
             style="fill:#0c0101;fill-rule:evenodd;stroke-width:2.31173;stroke-linecap:round;stroke-linejoin:round;stroke-dasharray:none;paint-order:fill markers stroke"
             d="m 267.80273,20.039062 c -0.47631,-0.164251 -1.00996,-0.08329 -1.38671,0.1875 -0.37676,0.27079 -0.62181,0.666342 -0.82032,1.123047 -0.397,0.91341 -0.60662,2.12883 -0.74218,3.433594 -0.19011,1.829761 -0.15143,3.233893 -0.1543,4.615234 -1.52749,0.563279 -3.21217,1.283928 -4.73828,2.462891 -2.02741,1.566224 -3.63884,3.867505 -3.56641,7.056641 -0.14245,2.69134 1.30173,4.693467 3.28125,5.794922 1.73012,0.96268 3.83839,1.185312 5.80859,0.90039 -0.002,0.673786 0.11003,1.383924 0.0742,2.023438 -0.0825,1.47311 -0.54268,2.450012 -1.24609,2.873047 -0.70341,0.423035 -1.82679,0.422146 -3.53711,-0.476563 a 0.56137502,0.56137502 0 0 0 -0.75781,0.236328 0.56137502,0.56137502 0 0 0 0.23437,0.757813 c 1.89497,0.995737 3.48658,1.139364 4.64063,0.445312 1.15405,-0.694052 1.69315,-2.095336 1.78711,-3.773437 0.0404,-0.721405 -0.082,-1.487757 -0.082,-2.242188 3.17728,-1.117671 4.90066,-3.795442 5.0332,-6.351562 0.0677,-1.30657 -0.27095,-2.587379 -1.04297,-3.59375 -0.77202,-1.006371 -1.98432,-1.715524 -3.53711,-1.876953 -0.37469,-0.03895 -0.73313,0.0071 -1.09961,0.01758 -0.0558,-0.669721 -0.20134,-1.91135 -0.19531,-2.267578 0.003,-0.200989 0.0387,-0.889899 0.0391,-1.201172 0.23959,-0.0821 0.52681,-0.212436 0.74805,-0.283203 a 0.56143116,0.56143116 0 0 0 0.0898,-0.03711 c 1.45348,-0.764989 2.7583,-2.690512 3.31055,-4.703125 0.27612,-1.006306 0.35252,-2.046371 0.0449,-2.984375 -0.3076,-0.938003 -1.04185,-1.742324 -2.18555,-2.136719 z m -0.36718,1.0625 c 0.86281,0.297535 1.27544,0.780756 1.48632,1.423829 0.21089,0.643072 0.17582,1.476512 -0.0605,2.33789 -0.47182,1.719501 -1.79152,3.494531 -2.74414,4 -0.0828,0.02662 -0.19567,0.07734 -0.28125,0.105469 0.008,-1.335543 -0.0284,-2.498142 0.13476,-4.068359 0.13002,-1.25135 0.3503,-2.404094 0.6543,-3.103516 0.152,-0.349711 0.32572,-0.570844 0.44727,-0.658203 0.12154,-0.08736 0.16754,-0.104607 0.36328,-0.03711 z m -2.77735,9.511719 c -3.5e-4,0.162363 -0.0235,0.637477 -0.0254,0.751953 -0.008,0.448787 0.14293,1.663615 0.20313,2.382813 -0.54949,0.107959 -1.09106,0.25408 -1.58985,0.523437 -1.14848,0.620217 -2.10398,1.698711 -2.76562,3.279297 -0.48197,1.151366 -0.003,2.307165 0.50976,3.119141 0.51306,0.811976 1.12305,1.36914 1.12305,1.36914 a 0.56137502,0.56137502 0 0 0 0.79297,-0.03516 0.56137502,0.56137502 0 0 0 -0.0332,-0.792969 c 0,0 -0.51146,-0.474506 -0.9336,-1.142578 -0.42213,-0.668071 -0.69259,-1.441933 -0.42383,-2.083984 0.58504,-1.397576 1.36161,-2.236409 2.26563,-2.724609 0.35353,-0.190917 0.75018,-0.287024 1.15039,-0.376954 0.11097,1.135624 0.1453,1.823899 0.2793,3.275391 0.18616,2.016557 0.19219,4.200681 0.23242,6.349609 -1.7591,0.276097 -3.70544,0.06774 -5.2207,-0.77539 -1.70027,-0.946073 -2.83899,-2.488866 -2.70899,-4.777344 a 0.56143116,0.56143116 0 0 0 0,-0.04492 c -0.0704,-2.817276 1.2871,-4.732785 3.13477,-6.160156 1.24653,-0.962978 2.6603,-1.607969 4.00976,-2.136719 z m 2.27735,4.138672 c 1.28493,0.133582 2.17429,0.675667 2.76172,1.441406 0.58742,0.76574 0.86827,1.777925 0.8125,2.853516 -0.10429,2.01136 -1.42698,4.155057 -3.95508,5.193359 -0.0494,-2.10417 -0.0452,-4.240412 -0.22461,-6.183593 -0.13799,-1.494673 -0.17312,-2.141903 -0.28321,-3.291016 0.29547,-0.0059 0.57533,-0.04625 0.88868,-0.01367 z"
             id="path96" />
        </g>
        <g
           id="g98"
           transform="matrix(0.53714625,0,0,0.49539094,277.87705,43.134741)"
           style="stroke-width:1.7153;stroke-dasharray:none">
          <g
             id="path97"
             style="stroke-width:1.7153;stroke-dasharray:none">
            <path
               style="fill-rule:evenodd;stroke-width:1.7153;stroke-linecap:round;stroke-linejoin:round;stroke-dasharray:none;paint-order:fill markers stroke"
               d="m 278.75933,47.014927 a 2.0569031,1.1753731 0 0 1 -2.05691,1.175373 2.0569031,1.1753731 0 0 1 -2.0569,-1.175373 2.0569031,1.1753731 0 0 1 2.0569,-1.175373 2.0569031,1.1753731 0 0 1 2.05691,1.175373 z"
               id="path174" />
            <path
               style="fill:#0c0101;fill-rule:evenodd;stroke-width:1.7153;stroke-linecap:round;stroke-linejoin:round;stroke-dasharray:none;paint-order:fill markers stroke"
               d="m 276.70312,45.423828 c -0.63231,10e-7 -1.21064,0.140455 -1.6621,0.398438 -0.45147,0.257982 -0.8125,0.671814 -0.8125,1.193359 0,0.521545 0.36103,0.933424 0.8125,1.191406 0.45146,0.257983 1.02979,0.40039 1.6621,0.400391 0.63232,10e-7 1.20869,-0.142408 1.66016,-0.400391 0.45147,-0.257982 0.8125,-0.669859 0.8125,-1.191406 0,-0.521547 -0.36103,-0.935377 -0.8125,-1.193359 -0.45147,-0.257983 -1.02784,-0.398439 -1.66016,-0.398438 z m 0,0.832031 c 0.50369,-10e-7 0.95507,0.121644 1.24805,0.289063 0.29299,0.167419 0.39258,0.343108 0.39258,0.470703 0,0.127595 -0.0996,0.301331 -0.39258,0.46875 -0.29298,0.167419 -0.74436,0.289063 -1.24805,0.289062 -0.50367,0 -0.95506,-0.121643 -1.24804,-0.289062 -0.29298,-0.167419 -0.39258,-0.341155 -0.39258,-0.46875 0,-0.127595 0.0996,-0.303284 0.39258,-0.470703 0.29298,-0.167419 0.74437,-0.289062 1.24804,-0.289063 z"
               id="path175" />
          </g>
          <path
             style="fill:#0c0101;fill-rule:evenodd;stroke-width:1.7153;stroke-linecap:round;stroke-linejoin:round;stroke-dasharray:none;paint-order:fill markers stroke"
             d="m 279.47461,35.046875 a 0.41658165,0.41658165 0 0 0 -0.29688,0.210937 c 0,0 -0.0299,0.152334 -0.0391,0.169922 l -0.0117,-0.0039 -0.006,0.08203 c -0.0834,0.168828 -0.28812,0.506939 -0.26367,1.142578 0.005,0.121355 0.11266,0.249901 0.14258,0.376954 l -0.75391,9.564453 a 0.41654,0.41654 0 0 0 0.38282,0.449218 0.41654,0.41654 0 0 0 0.44726,-0.382812 L 279.75,38.128906 c 0.28935,0.248537 0.55061,0.513167 1.04102,0.664063 a 0.41658165,0.41658165 0 0 0 0.0625,0.01367 c 1.33909,0.1997 2.14463,0.550141 2.54687,0.896484 0.40224,0.346343 0.45575,0.639334 0.35938,1.007812 -0.19276,0.736957 -1.35356,1.696048 -2.46094,1.982422 A 0.41654,0.41654 0 0 0 281,43.201172 0.41654,0.41654 0 0 0 281.50781,43.5 c 1.36914,-0.354067 2.73037,-1.332651 3.05664,-2.580078 0.16314,-0.623713 -0.024,-1.335194 -0.61914,-1.847656 -0.59517,-0.512463 -1.54178,-0.875085 -2.96875,-1.087891 l 0.0605,0.01367 c -0.81428,-0.250548 -1.07294,-0.591652 -1.20117,-0.94336 l 0.12304,-1.564453 a 0.41658165,0.41658165 0 0 0 -0.48437,-0.443359 z"
             id="path98" />
        </g>
        <g
           id="g100"
           transform="matrix(0.42378248,0,0,0.43845107,318.97775,59.391745)"
           style="stroke-width:2.05274;stroke-dasharray:none">
          <g
             id="path99"
             style="stroke-width:2.05274;stroke-dasharray:none">
            <path
               style="fill-rule:evenodd;stroke-width:2.05274;stroke-linecap:round;stroke-linejoin:round;stroke-dasharray:none;paint-order:fill markers stroke"
               d="m 268.67071,66.84935 a 2.0079291,1.4202425 0 0 1 -2.00793,1.420243 2.0079291,1.4202425 0 0 1 -2.00793,-1.420243 2.0079291,1.4202425 0 0 1 2.00793,-1.420243 2.0079291,1.4202425 0 0 1 2.00793,1.420243 z"
               id="path176" />
            <path
               style="fill:#0c0101;fill-rule:evenodd;stroke-width:2.05274;stroke-linecap:round;stroke-linejoin:round;stroke-dasharray:none;paint-order:fill markers stroke"
               d="m 266.66211,64.929687 c -0.64975,0 -1.24608,0.181771 -1.70703,0.507813 -0.46096,0.326042 -0.79883,0.829484 -0.79883,1.412109 0,0.582626 0.33787,1.084115 0.79883,1.410157 0.46095,0.326041 1.05728,0.507812 1.70703,0.507812 0.64975,0 1.24803,-0.181771 1.70898,-0.507812 0.46096,-0.326042 0.79883,-0.827531 0.79883,-1.410157 0,-0.582625 -0.33787,-1.086067 -0.79883,-1.412109 -0.46095,-0.326042 -1.05923,-0.507813 -1.70898,-0.507813 z m 0,0.998047 c 0.4592,0 0.86704,0.136234 1.13281,0.324219 0.26577,0.187985 0.37696,0.395903 0.37695,0.597656 10e-6,0.201753 -0.11118,0.409671 -0.37695,0.597657 -0.26577,0.187985 -0.67361,0.324219 -1.13281,0.324218 -0.4592,10e-7 -0.86509,-0.136233 -1.13086,-0.324218 -0.26577,-0.187986 -0.37695,-0.395904 -0.37695,-0.597657 0,-0.201753 0.11118,-0.409671 0.37695,-0.597656 0.26577,-0.187985 0.67166,-0.324219 1.13086,-0.324219 z"
               id="path177" />
          </g>
          <g
             id="ellipse99"
             style="stroke-width:2.05274;stroke-dasharray:none">
            <path
               style="fill-rule:evenodd;stroke-width:2.05274;stroke-linecap:round;stroke-linejoin:round;stroke-dasharray:none;paint-order:fill markers stroke"
               d="m 279.24908,67.045242 a 2.0079291,1.4202425 0 0 1 -2.00793,1.420243 2.0079291,1.4202425 0 0 1 -2.00793,-1.420243 2.0079291,1.4202425 0 0 1 2.00793,-1.420242 2.0079291,1.4202425 0 0 1 2.00793,1.420242 z"
               id="path178" />
            <path
               style="fill:#0c0101;fill-rule:evenodd;stroke-width:2.05274;stroke-linecap:round;stroke-linejoin:round;stroke-dasharray:none;paint-order:fill markers stroke"
               d="m 277.24023,65.126953 c -0.64974,0 -1.24607,0.181771 -1.70703,0.507813 -0.46095,0.326041 -0.79882,0.827531 -0.79883,1.410156 0,0.582626 0.33788,1.086068 0.79883,1.412109 0.46096,0.326042 1.05728,0.507813 1.70703,0.507813 0.64975,0 1.24803,-0.181771 1.70899,-0.507813 0.46095,-0.326041 0.79883,-0.829483 0.79883,-1.412109 0,-0.582625 -0.33788,-1.084115 -0.79883,-1.410156 -0.46096,-0.326042 -1.05924,-0.507813 -1.70899,-0.507813 z m 0,0.996094 c 0.4592,0 0.86704,0.136234 1.13282,0.324219 0.26577,0.187985 0.37695,0.395903 0.37695,0.597656 0,0.201753 -0.11118,0.409671 -0.37695,0.597656 -0.26578,0.187985 -0.67362,0.324219 -1.13282,0.324219 -0.4592,0 -0.86508,-0.136234 -1.13086,-0.324219 -0.26577,-0.187985 -0.37695,-0.395903 -0.37695,-0.597656 0,-0.201753 0.11118,-0.409671 0.37695,-0.597656 0.26578,-0.187985 0.67166,-0.324219 1.13086,-0.324219 z"
               id="path179" />
          </g>
          <path
             style="fill:#0c0101;fill-rule:evenodd;stroke-width:2.05274;stroke-linecap:round;stroke-linejoin:round;stroke-dasharray:none;paint-order:fill markers stroke"
             d="m 278.65039,56.017578 -9.30469,0.195313 a 0.49852784,0.49852784 0 0 0 -0.48828,0.49414 l -0.0976,9.402344 a 0.498478,0.498478 0 0 0 0.49414,0.503906 0.498478,0.498478 0 0 0 0.5039,-0.49414 l 0.0918,-8.919922 8.32226,-0.175782 0.1875,9.101563 a 0.498478,0.498478 0 0 0 0.50782,0.488281 0.498478,0.498478 0 0 0 0.48828,-0.507812 l -0.19531,-9.59961 a 0.49852784,0.49852784 0 0 0 -0.50977,-0.488281 z"
             id="path100" />
        </g>
        <g
           id="g102"
           transform="matrix(0.53714625,0,0,0.49539094,260.63846,62.556278)"
           style="stroke-width:1.7153;stroke-dasharray:none">
          <path
             style="fill:#0c0101;fill-rule:evenodd;stroke-width:1.7153;stroke-linecap:round;stroke-linejoin:round;stroke-dasharray:none;paint-order:fill markers stroke"
             d="m 301.77734,44.248047 c -0.69794,0 -1.33707,0.186013 -1.82617,0.515625 -0.4891,0.329612 -0.84375,0.831711 -0.84375,1.417969 0,0.586257 0.35465,1.090309 0.84375,1.419921 0.4891,0.329613 1.12823,0.515626 1.82617,0.515625 0.69795,10e-7 1.33707,-0.186012 1.82618,-0.515625 0.4891,-0.329612 0.84375,-0.833664 0.84375,-1.419921 0,-0.586258 -0.35465,-1.088357 -0.84375,-1.417969 -0.48911,-0.329612 -1.12823,-0.515625 -1.82618,-0.515625 z m 0,0.832031 c 0.54624,0 1.03313,0.155136 1.35938,0.375 0.32625,0.219865 0.47656,0.474347 0.47656,0.726563 0,0.252216 -0.15031,0.508651 -0.47656,0.728515 -0.32625,0.219865 -0.81314,0.373047 -1.35938,0.373047 -0.54624,0 -1.03507,-0.153182 -1.36132,-0.373047 -0.32626,-0.219864 -0.47461,-0.476299 -0.47461,-0.728515 0,-0.252216 0.14835,-0.506698 0.47461,-0.726563 0.32625,-0.219864 0.81508,-0.375 1.36132,-0.375 z"
             id="path101" />
          <path
             style="fill:#0c0101;fill-rule:evenodd;stroke-width:1.7153;stroke-linecap:round;stroke-linejoin:round;stroke-dasharray:none;paint-order:fill markers stroke"
             d="m 304.55469,35.826172 a 0.41654,0.41654 0 0 0 -0.44922,0.378906 c 0,0 -0.1722,2.033499 -0.34375,4.263672 -0.17155,2.230173 -0.34375,4.624422 -0.34375,5.46875 a 0.41654,0.41654 0 0 0 0.41601,0.416016 A 0.41654,0.41654 0 0 0 304.25,45.9375 c 0,-0.722836 0.17053,-3.177847 0.3418,-5.404297 0.17126,-2.22645 0.34375,-4.257812 0.34375,-4.257812 a 0.41654,0.41654 0 0 0 -0.38086,-0.449219 z"
             id="path102" />
        </g>
        <g
           id="g103"
           transform="matrix(0.36138613,0,0,0.40539437,308.94551,85.594131)"
           style="stroke-width:2.31173;stroke-dasharray:none">
          <g
             id="ellipse102"
             style="stroke-width:2.31173;stroke-dasharray:none">
            <path
               style="fill-rule:evenodd;stroke-width:2.31173;stroke-linecap:round;stroke-linejoin:round;stroke-dasharray:none;paint-order:fill markers stroke"
               d="m 262.14731,49.555191 a 1.3851902,1.5583394 0 0 1 -1.38519,1.558339 1.3851902,1.5583394 0 0 1 -1.38519,-1.558339 1.3851902,1.5583394 0 0 1 1.38519,-1.558339 1.3851902,1.5583394 0 0 1 1.38519,1.558339 z"
               id="path180" />
            <path
               style="fill-rule:evenodd;stroke-width:2.31173;stroke-linecap:round;stroke-linejoin:round;stroke-dasharray:none;paint-order:fill markers stroke"
               d="m 260.76172,47.435547 c -1.10633,0 -1.94531,0.988814 -1.94531,2.11914 0,1.130327 0.83898,2.121094 1.94531,2.121094 1.10633,0 1.94726,-0.990767 1.94726,-2.121094 0,-1.130326 -0.84093,-2.11914 -1.94726,-2.11914 z m 0,1.123047 c 0.4237,0 0.82422,0.405126 0.82422,0.996093 0,0.590968 -0.40052,0.998047 -0.82422,0.998047 -0.42371,0 -0.82422,-0.407079 -0.82422,-0.998047 0,-0.590967 0.40051,-0.996093 0.82422,-0.996093 z"
               id="path181" />
          </g>
          <path
             style="fill:#0c0101;fill-rule:evenodd;stroke-width:2.31173;stroke-linecap:round;stroke-linejoin:round;stroke-dasharray:none;paint-order:fill markers stroke"
             d="m 267.80273,20.039062 c -0.47631,-0.164251 -1.00996,-0.08329 -1.38671,0.1875 -0.37676,0.27079 -0.62181,0.666342 -0.82032,1.123047 -0.397,0.91341 -0.60662,2.12883 -0.74218,3.433594 -0.19011,1.829761 -0.15143,3.233893 -0.1543,4.615234 -1.52749,0.563279 -3.21217,1.283928 -4.73828,2.462891 -2.02741,1.566224 -3.63884,3.867505 -3.56641,7.056641 -0.14245,2.69134 1.30173,4.693467 3.28125,5.794922 1.73012,0.96268 3.83839,1.185312 5.80859,0.90039 -0.002,0.673786 0.11003,1.383924 0.0742,2.023438 -0.0825,1.47311 -0.54268,2.450012 -1.24609,2.873047 -0.70341,0.423035 -1.82679,0.422146 -3.53711,-0.476563 a 0.56137502,0.56137502 0 0 0 -0.75781,0.236328 0.56137502,0.56137502 0 0 0 0.23437,0.757813 c 1.89497,0.995737 3.48658,1.139364 4.64063,0.445312 1.15405,-0.694052 1.69315,-2.095336 1.78711,-3.773437 0.0404,-0.721405 -0.082,-1.487757 -0.082,-2.242188 3.17728,-1.117671 4.90066,-3.795442 5.0332,-6.351562 0.0677,-1.30657 -0.27095,-2.587379 -1.04297,-3.59375 -0.77202,-1.006371 -1.98432,-1.715524 -3.53711,-1.876953 -0.37469,-0.03895 -0.73313,0.0071 -1.09961,0.01758 -0.0558,-0.669721 -0.20134,-1.91135 -0.19531,-2.267578 0.003,-0.200989 0.0387,-0.889899 0.0391,-1.201172 0.23959,-0.0821 0.52681,-0.212436 0.74805,-0.283203 a 0.56143116,0.56143116 0 0 0 0.0898,-0.03711 c 1.45348,-0.764989 2.7583,-2.690512 3.31055,-4.703125 0.27612,-1.006306 0.35252,-2.046371 0.0449,-2.984375 -0.3076,-0.938003 -1.04185,-1.742324 -2.18555,-2.136719 z m -0.36718,1.0625 c 0.86281,0.297535 1.27544,0.780756 1.48632,1.423829 0.21089,0.643072 0.17582,1.476512 -0.0605,2.33789 -0.47182,1.719501 -1.79152,3.494531 -2.74414,4 -0.0828,0.02662 -0.19567,0.07734 -0.28125,0.105469 0.008,-1.335543 -0.0284,-2.498142 0.13476,-4.068359 0.13002,-1.25135 0.3503,-2.404094 0.6543,-3.103516 0.152,-0.349711 0.32572,-0.570844 0.44727,-0.658203 0.12154,-0.08736 0.16754,-0.104607 0.36328,-0.03711 z m -2.77735,9.511719 c -3.5e-4,0.162363 -0.0235,0.637477 -0.0254,0.751953 -0.008,0.448787 0.14293,1.663615 0.20313,2.382813 -0.54949,0.107959 -1.09106,0.25408 -1.58985,0.523437 -1.14848,0.620217 -2.10398,1.698711 -2.76562,3.279297 -0.48197,1.151366 -0.003,2.307165 0.50976,3.119141 0.51306,0.811976 1.12305,1.36914 1.12305,1.36914 a 0.56137502,0.56137502 0 0 0 0.79297,-0.03516 0.56137502,0.56137502 0 0 0 -0.0332,-0.792969 c 0,0 -0.51146,-0.474506 -0.9336,-1.142578 -0.42213,-0.668071 -0.69259,-1.441933 -0.42383,-2.083984 0.58504,-1.397576 1.36161,-2.236409 2.26563,-2.724609 0.35353,-0.190917 0.75018,-0.287024 1.15039,-0.376954 0.11097,1.135624 0.1453,1.823899 0.2793,3.275391 0.18616,2.016557 0.19219,4.200681 0.23242,6.349609 -1.7591,0.276097 -3.70544,0.06774 -5.2207,-0.77539 -1.70027,-0.946073 -2.83899,-2.488866 -2.70899,-4.777344 a 0.56143116,0.56143116 0 0 0 0,-0.04492 c -0.0704,-2.817276 1.2871,-4.732785 3.13477,-6.160156 1.24653,-0.962978 2.6603,-1.607969 4.00976,-2.136719 z m 2.27735,4.138672 c 1.28493,0.133582 2.17429,0.675667 2.76172,1.441406 0.58742,0.76574 0.86827,1.777925 0.8125,2.853516 -0.10429,2.01136 -1.42698,4.155057 -3.95508,5.193359 -0.0494,-2.10417 -0.0452,-4.240412 -0.22461,-6.183593 -0.13799,-1.494673 -0.17312,-2.141903 -0.28321,-3.291016 0.29547,-0.0059 0.57533,-0.04625 0.88868,-0.01367 z"
             id="path103" />
        </g>
        <g
           id="g104"
           transform="matrix(0.53714625,0,0,0.49539094,273.23154,74.243452)"
           style="stroke-width:1.7153;stroke-dasharray:none">
          <g
             id="ellipse103"
             style="stroke-width:1.7153;stroke-dasharray:none">
            <path
               style="fill-rule:evenodd;stroke-width:1.7153;stroke-linecap:round;stroke-linejoin:round;stroke-dasharray:none;paint-order:fill markers stroke"
               d="m 278.75933,47.014927 a 2.0569031,1.1753731 0 0 1 -2.05691,1.175373 2.0569031,1.1753731 0 0 1 -2.0569,-1.175373 2.0569031,1.1753731 0 0 1 2.0569,-1.175373 2.0569031,1.1753731 0 0 1 2.05691,1.175373 z"
               id="path182" />
            <path
               style="fill:#0c0101;fill-rule:evenodd;stroke-width:1.7153;stroke-linecap:round;stroke-linejoin:round;stroke-dasharray:none;paint-order:fill markers stroke"
               d="m 276.70312,45.423828 c -0.63231,10e-7 -1.21064,0.140455 -1.6621,0.398438 -0.45147,0.257982 -0.8125,0.671814 -0.8125,1.193359 0,0.521545 0.36103,0.933424 0.8125,1.191406 0.45146,0.257983 1.02979,0.40039 1.6621,0.400391 0.63232,10e-7 1.20869,-0.142408 1.66016,-0.400391 0.45147,-0.257982 0.8125,-0.669859 0.8125,-1.191406 0,-0.521547 -0.36103,-0.935377 -0.8125,-1.193359 -0.45147,-0.257983 -1.02784,-0.398439 -1.66016,-0.398438 z m 0,0.832031 c 0.50369,-10e-7 0.95507,0.121644 1.24805,0.289063 0.29299,0.167419 0.39258,0.343108 0.39258,0.470703 0,0.127595 -0.0996,0.301331 -0.39258,0.46875 -0.29298,0.167419 -0.74436,0.289063 -1.24805,0.289062 -0.50367,0 -0.95506,-0.121643 -1.24804,-0.289062 -0.29298,-0.167419 -0.39258,-0.341155 -0.39258,-0.46875 0,-0.127595 0.0996,-0.303284 0.39258,-0.470703 0.29298,-0.167419 0.74437,-0.289062 1.24804,-0.289063 z"
               id="path183" />
          </g>
          <path
             style="fill:#0c0101;fill-rule:evenodd;stroke-width:1.7153;stroke-linecap:round;stroke-linejoin:round;stroke-dasharray:none;paint-order:fill markers stroke"
             d="m 279.47461,35.046875 a 0.41658165,0.41658165 0 0 0 -0.29688,0.210937 c 0,0 -0.0299,0.152334 -0.0391,0.169922 l -0.0117,-0.0039 -0.006,0.08203 c -0.0834,0.168828 -0.28812,0.506939 -0.26367,1.142578 0.005,0.121355 0.11266,0.249901 0.14258,0.376954 l -0.75391,9.564453 a 0.41654,0.41654 0 0 0 0.38282,0.449218 0.41654,0.41654 0 0 0 0.44726,-0.382812 L 279.75,38.128906 c 0.28935,0.248537 0.55061,0.513167 1.04102,0.664063 a 0.41658165,0.41658165 0 0 0 0.0625,0.01367 c 1.33909,0.1997 2.14463,0.550141 2.54687,0.896484 0.40224,0.346343 0.45575,0.639334 0.35938,1.007812 -0.19276,0.736957 -1.35356,1.696048 -2.46094,1.982422 A 0.41654,0.41654 0 0 0 281,43.201172 0.41654,0.41654 0 0 0 281.50781,43.5 c 1.36914,-0.354067 2.73037,-1.332651 3.05664,-2.580078 0.16314,-0.623713 -0.024,-1.335194 -0.61914,-1.847656 -0.59517,-0.512463 -1.54178,-0.875085 -2.96875,-1.087891 l 0.0605,0.01367 c -0.81428,-0.250548 -1.07294,-0.591652 -1.20117,-0.94336 l 0.12304,-1.564453 a 0.41658165,0.41658165 0 0 0 -0.48437,-0.443359 z"
             id="path104" />
        </g>
        <g
           id="g105"
           transform="matrix(0.42378248,0,0,0.43845107,296.35259,61.178281)"
           style="stroke-width:2.05274;stroke-dasharray:none">
          <g
             id="ellipse104"
             style="stroke-width:2.05274;stroke-dasharray:none">
            <path
               style="fill-rule:evenodd;stroke-width:2.05274;stroke-linecap:round;stroke-linejoin:round;stroke-dasharray:none;paint-order:fill markers stroke"
               d="m 268.67071,66.84935 a 2.0079291,1.4202425 0 0 1 -2.00793,1.420243 2.0079291,1.4202425 0 0 1 -2.00793,-1.420243 2.0079291,1.4202425 0 0 1 2.00793,-1.420243 2.0079291,1.4202425 0 0 1 2.00793,1.420243 z"
               id="path184" />
            <path
               style="fill:#0c0101;fill-rule:evenodd;stroke-width:2.05274;stroke-linecap:round;stroke-linejoin:round;stroke-dasharray:none;paint-order:fill markers stroke"
               d="m 266.66211,64.929687 c -0.64975,0 -1.24608,0.181771 -1.70703,0.507813 -0.46096,0.326042 -0.79883,0.829484 -0.79883,1.412109 0,0.582626 0.33787,1.084115 0.79883,1.410157 0.46095,0.326041 1.05728,0.507812 1.70703,0.507812 0.64975,0 1.24803,-0.181771 1.70898,-0.507812 0.46096,-0.326042 0.79883,-0.827531 0.79883,-1.410157 0,-0.582625 -0.33787,-1.086067 -0.79883,-1.412109 -0.46095,-0.326042 -1.05923,-0.507813 -1.70898,-0.507813 z m 0,0.998047 c 0.4592,0 0.86704,0.136234 1.13281,0.324219 0.26577,0.187985 0.37696,0.395903 0.37695,0.597656 10e-6,0.201753 -0.11118,0.409671 -0.37695,0.597657 -0.26577,0.187985 -0.67361,0.324219 -1.13281,0.324218 -0.4592,10e-7 -0.86509,-0.136233 -1.13086,-0.324218 -0.26577,-0.187986 -0.37695,-0.395904 -0.37695,-0.597657 0,-0.201753 0.11118,-0.409671 0.37695,-0.597656 0.26577,-0.187985 0.67166,-0.324219 1.13086,-0.324219 z"
               id="path185" />
          </g>
          <g
             id="ellipse105"
             style="stroke-width:2.05274;stroke-dasharray:none">
            <path
               style="fill-rule:evenodd;stroke-width:2.05274;stroke-linecap:round;stroke-linejoin:round;stroke-dasharray:none;paint-order:fill markers stroke"
               d="m 279.24908,67.045242 a 2.0079291,1.4202425 0 0 1 -2.00793,1.420243 2.0079291,1.4202425 0 0 1 -2.00793,-1.420243 2.0079291,1.4202425 0 0 1 2.00793,-1.420242 2.0079291,1.4202425 0 0 1 2.00793,1.420242 z"
               id="path186" />
            <path
               style="fill:#0c0101;fill-rule:evenodd;stroke-width:2.05274;stroke-linecap:round;stroke-linejoin:round;stroke-dasharray:none;paint-order:fill markers stroke"
               d="m 277.24023,65.126953 c -0.64974,0 -1.24607,0.181771 -1.70703,0.507813 -0.46095,0.326041 -0.79882,0.827531 -0.79883,1.410156 0,0.582626 0.33788,1.086068 0.79883,1.412109 0.46096,0.326042 1.05728,0.507813 1.70703,0.507813 0.64975,0 1.24803,-0.181771 1.70899,-0.507813 0.46095,-0.326041 0.79883,-0.829483 0.79883,-1.412109 0,-0.582625 -0.33788,-1.084115 -0.79883,-1.410156 -0.46096,-0.326042 -1.05924,-0.507813 -1.70899,-0.507813 z m 0,0.996094 c 0.4592,0 0.86704,0.136234 1.13282,0.324219 0.26577,0.187985 0.37695,0.395903 0.37695,0.597656 0,0.201753 -0.11118,0.409671 -0.37695,0.597656 -0.26578,0.187985 -0.67362,0.324219 -1.13282,0.324219 -0.4592,0 -0.86508,-0.136234 -1.13086,-0.324219 -0.26577,-0.187985 -0.37695,-0.395903 -0.37695,-0.597656 0,-0.201753 0.11118,-0.409671 0.37695,-0.597656 0.26578,-0.187985 0.67166,-0.324219 1.13086,-0.324219 z"
               id="path187" />
          </g>
          <path
             style="fill:#0c0101;fill-rule:evenodd;stroke-width:2.05274;stroke-linecap:round;stroke-linejoin:round;stroke-dasharray:none;paint-order:fill markers stroke"
             d="m 278.65039,56.017578 -9.30469,0.195313 a 0.49852784,0.49852784 0 0 0 -0.48828,0.49414 l -0.0976,9.402344 a 0.498478,0.498478 0 0 0 0.49414,0.503906 0.498478,0.498478 0 0 0 0.5039,-0.49414 l 0.0918,-8.919922 8.32226,-0.175782 0.1875,9.101563 a 0.498478,0.498478 0 0 0 0.50782,0.488281 0.498478,0.498478 0 0 0 0.48828,-0.507812 l -0.19531,-9.59961 a 0.49852784,0.49852784 0 0 0 -0.50977,-0.488281 z"
             id="path105" />
        </g>
        <g
           id="g106"
           transform="matrix(0.53714625,0,0,0.49539094,241.91491,65.277438)"
           style="stroke-width:1.7153;stroke-dasharray:none">
          <path
             style="fill:#0c0101;fill-rule:evenodd;stroke-width:1.7153;stroke-linecap:round;stroke-linejoin:round;stroke-dasharray:none;paint-order:fill markers stroke"
             d="m 301.77734,44.248047 c -0.69794,0 -1.33707,0.186013 -1.82617,0.515625 -0.4891,0.329612 -0.84375,0.831711 -0.84375,1.417969 0,0.586257 0.35465,1.090309 0.84375,1.419921 0.4891,0.329613 1.12823,0.515626 1.82617,0.515625 0.69795,10e-7 1.33707,-0.186012 1.82618,-0.515625 0.4891,-0.329612 0.84375,-0.833664 0.84375,-1.419921 0,-0.586258 -0.35465,-1.088357 -0.84375,-1.417969 -0.48911,-0.329612 -1.12823,-0.515625 -1.82618,-0.515625 z m 0,0.832031 c 0.54624,0 1.03313,0.155136 1.35938,0.375 0.32625,0.219865 0.47656,0.474347 0.47656,0.726563 0,0.252216 -0.15031,0.508651 -0.47656,0.728515 -0.32625,0.219865 -0.81314,0.373047 -1.35938,0.373047 -0.54624,0 -1.03507,-0.153182 -1.36132,-0.373047 -0.32626,-0.219864 -0.47461,-0.476299 -0.47461,-0.728515 0,-0.252216 0.14835,-0.506698 0.47461,-0.726563 0.32625,-0.219864 0.81508,-0.375 1.36132,-0.375 z"
             id="ellipse106" />
          <path
             style="fill:#0c0101;fill-rule:evenodd;stroke-width:1.7153;stroke-linecap:round;stroke-linejoin:round;stroke-dasharray:none;paint-order:fill markers stroke"
             d="m 304.55469,35.826172 a 0.41654,0.41654 0 0 0 -0.44922,0.378906 c 0,0 -0.1722,2.033499 -0.34375,4.263672 -0.17155,2.230173 -0.34375,4.624422 -0.34375,5.46875 a 0.41654,0.41654 0 0 0 0.41601,0.416016 A 0.41654,0.41654 0 0 0 304.25,45.9375 c 0,-0.722836 0.17053,-3.177847 0.3418,-5.404297 0.17126,-2.22645 0.34375,-4.257812 0.34375,-4.257812 a 0.41654,0.41654 0 0 0 -0.38086,-0.449219 z"
             id="path106" />
        </g>
        <g
           id="g109"
           transform="matrix(0.6736821,0,0,0.91958753,192.29269,41.387276)"
           style="stroke-width:1.12417;stroke-dasharray:none">
          <g
             id="path107"
             style="stroke-width:1.12417;stroke-dasharray:none">
            <path
               style="fill-rule:evenodd;stroke-width:1.12417;stroke-linecap:round;stroke-linejoin:round;stroke-dasharray:none;paint-order:fill markers stroke"
               d="m 288.16233,67.192162 a 2.1548507,1.9589553 0 0 1 -2.15485,1.958955 2.1548507,1.9589553 0 0 1 -2.15485,-1.958955 2.1548507,1.9589553 0 0 1 2.15485,-1.958956 2.1548507,1.9589553 0 0 1 2.15485,1.958956 z"
               id="path188" />
            <path
               style="fill:#0c0101;fill-rule:evenodd;stroke-width:1.12417;stroke-linecap:round;stroke-linejoin:round;stroke-dasharray:none;paint-order:fill markers stroke"
               d="m 286.00781,64.960937 c -1.32421,10e-7 -2.42773,0.986277 -2.42773,2.230469 0,1.244192 1.10352,2.232422 2.42773,2.232422 1.32422,0 2.42774,-0.98823 2.42774,-2.232422 0,-1.244192 -1.10352,-2.230468 -2.42774,-2.230469 z m 0,0.544922 c 1.05597,10e-7 1.88086,0.765937 1.88086,1.685547 0,0.91961 -0.82489,1.6875 -1.88086,1.6875 -1.05596,0 -1.88281,-0.76789 -1.88281,-1.6875 0,-0.91961 0.82685,-1.685546 1.88281,-1.685547 z"
               id="path189" />
          </g>
          <g
             id="ellipse107"
             style="stroke-width:1.12417;stroke-dasharray:none">
            <path
               style="fill-rule:evenodd;stroke-width:1.12417;stroke-linecap:round;stroke-linejoin:round;stroke-dasharray:none;paint-order:fill markers stroke"
               d="m 297.56531,67.192162 a 2.1548507,1.9589553 0 0 1 -2.15485,1.958955 2.1548507,1.9589553 0 0 1 -2.15485,-1.958955 2.1548507,1.9589553 0 0 1 2.15485,-1.958956 2.1548507,1.9589553 0 0 1 2.15485,1.958956 z"
               id="path190" />
            <path
               style="fill:#0c0101;fill-rule:evenodd;stroke-width:1.12417;stroke-linecap:round;stroke-linejoin:round;stroke-dasharray:none;paint-order:fill markers stroke"
               d="m 295.41016,64.960937 c -1.32422,10e-7 -2.42774,0.986277 -2.42774,2.230469 0,1.244192 1.10352,2.232422 2.42774,2.232422 1.32421,0 2.42773,-0.98823 2.42773,-2.232422 0,-1.244192 -1.10352,-2.230468 -2.42773,-2.230469 z m 0,0.544922 c 1.05596,10e-7 1.88281,0.765937 1.88281,1.685547 0,0.91961 -0.82685,1.6875 -1.88281,1.6875 -1.05597,0 -1.88086,-0.76789 -1.88086,-1.6875 0,-0.91961 0.82489,-1.685546 1.88086,-1.685547 z"
               id="path191" />
          </g>
          <g
             id="ellipse108"
             style="stroke-width:1.12417;stroke-dasharray:none">
            <path
               style="fill-rule:evenodd;stroke-width:1.12417;stroke-linecap:round;stroke-linejoin:round;stroke-dasharray:none;paint-order:fill markers stroke"
               d="m 305.79291,67.388054 a 2.1548507,1.9589553 0 0 1 -2.15485,1.958955 2.1548507,1.9589553 0 0 1 -2.15485,-1.958955 2.1548507,1.9589553 0 0 1 2.15485,-1.958955 2.1548507,1.9589553 0 0 1 2.15485,1.958955 z"
               id="path192" />
            <path
               style="fill:#0c0101;fill-rule:evenodd;stroke-width:1.12417;stroke-linecap:round;stroke-linejoin:round;stroke-dasharray:none;paint-order:fill markers stroke"
               d="m 303.63867,65.15625 c -1.32421,0 -2.42773,0.98823 -2.42773,2.232422 0,1.244191 1.10352,2.230468 2.42773,2.230469 1.32422,-10e-7 2.42774,-0.986278 2.42774,-2.230469 0,-1.244192 -1.10352,-2.232422 -2.42774,-2.232422 z m 0,0.544922 c 1.05597,0 1.88086,0.76789 1.88086,1.6875 0,0.91961 -0.82489,1.685546 -1.88086,1.685547 -1.05596,-10e-7 -1.88281,-0.765937 -1.88281,-1.685547 0,-0.91961 0.82685,-1.6875 1.88281,-1.6875 z"
               id="path193" />
          </g>
          <path
             style="fill:#0c0101;fill-rule:evenodd;stroke-width:1.12417;stroke-linecap:round;stroke-linejoin:round;stroke-dasharray:none;paint-order:fill markers stroke"
             d="m 289.15234,55.949219 a 0.27302179,0.27302179 0 0 0 -0.2832,0.255859 L 288.28125,66 a 0.27299449,0.27299449 0 0 0 0.25586,0.289062 0.27299449,0.27299449 0 0 0 0.28906,-0.255859 l 0.57227,-9.529297 15.16601,0.570313 0.95703,10.339843 a 0.27299449,0.27299449 0 0 0 0.29688,0.246094 0.27299449,0.27299449 0 0 0 0.24609,-0.296875 l -0.97851,-10.578125 a 0.27302179,0.27302179 0 0 0 -0.26172,-0.248047 z"
             id="path108" />
          <path
             style="fill:#0c0101;fill-rule:evenodd;stroke-width:1.12417;stroke-linecap:round;stroke-linejoin:round;stroke-dasharray:none;paint-order:fill markers stroke"
             d="m 297.17383,57.125 a 0.27299449,0.27299449 0 0 0 -0.27344,0.271484 v 9.011719 a 0.27299449,0.27299449 0 0 0 0.27344,0.273438 0.27299449,0.27299449 0 0 0 0.27344,-0.273438 V 57.396484 A 0.27299449,0.27299449 0 0 0 297.17383,57.125 Z"
             id="path109" />
        </g>
        <g
           id="g112"
           transform="matrix(0.31201639,0,0,0.32925,341.03753,51.221854)"
           style="stroke-width:2.76064;stroke-dasharray:none">
          <g
             id="ellipse109"
             style="stroke-width:2.76064;stroke-dasharray:none">
            <path
               style="fill-rule:evenodd;stroke-width:2.76064;stroke-linecap:round;stroke-linejoin:round;stroke-dasharray:none;paint-order:fill markers stroke"
               d="m 288.16233,67.192162 a 2.1548507,1.9589553 0 0 1 -2.15485,1.958955 2.1548507,1.9589553 0 0 1 -2.15485,-1.958955 2.1548507,1.9589553 0 0 1 2.15485,-1.958956 2.1548507,1.9589553 0 0 1 2.15485,1.958956 z"
               id="path194" />
            <path
               style="fill:#0c0101;fill-rule:evenodd;stroke-width:2.76064;stroke-linecap:round;stroke-linejoin:round;stroke-dasharray:none;paint-order:fill markers stroke"
               d="m 286.00781,64.5625 c -1.51946,0 -2.82617,1.148469 -2.82617,2.628906 0,1.480437 1.30671,2.630859 2.82617,2.63086 1.51946,-10e-7 2.82422,-1.150423 2.82422,-2.63086 0,-1.480437 -1.30476,-2.628906 -2.82422,-2.628906 z m 0,1.341797 c 0.86072,0 1.48438,0.603744 1.48438,1.287109 0,0.683365 -0.62366,1.289062 -1.48438,1.289063 -0.86072,-10e-7 -1.48437,-0.605698 -1.48437,-1.289063 0,-0.683365 0.62365,-1.287109 1.48437,-1.287109 z"
               id="path195" />
          </g>
          <g
             id="ellipse110"
             style="stroke-width:2.76064;stroke-dasharray:none">
            <path
               style="fill-rule:evenodd;stroke-width:2.76064;stroke-linecap:round;stroke-linejoin:round;stroke-dasharray:none;paint-order:fill markers stroke"
               d="m 297.56531,67.192162 a 2.1548507,1.9589553 0 0 1 -2.15485,1.958955 2.1548507,1.9589553 0 0 1 -2.15485,-1.958955 2.1548507,1.9589553 0 0 1 2.15485,-1.958956 2.1548507,1.9589553 0 0 1 2.15485,1.958956 z"
               id="path196" />
            <path
               style="fill:#0c0101;fill-rule:evenodd;stroke-width:2.76064;stroke-linecap:round;stroke-linejoin:round;stroke-dasharray:none;paint-order:fill markers stroke"
               d="m 295.41016,64.5625 c -1.51946,0 -2.82422,1.148469 -2.82422,2.628906 0,1.480437 1.30476,2.630859 2.82422,2.63086 1.51946,-10e-7 2.82617,-1.150423 2.82617,-2.63086 0,-1.480437 -1.30671,-2.628906 -2.82617,-2.628906 z m 0,1.341797 c 0.86072,0 1.48437,0.603744 1.48437,1.287109 0,0.683365 -0.62365,1.289062 -1.48437,1.289063 -0.86073,-10e-7 -1.48438,-0.605698 -1.48438,-1.289063 0,-0.683365 0.62365,-1.287109 1.48438,-1.287109 z"
               id="path197" />
          </g>
          <g
             id="ellipse111"
             style="stroke-width:2.76064;stroke-dasharray:none">
            <path
               style="fill-rule:evenodd;stroke-width:2.76064;stroke-linecap:round;stroke-linejoin:round;stroke-dasharray:none;paint-order:fill markers stroke"
               d="m 305.79291,67.388054 a 2.1548507,1.9589553 0 0 1 -2.15485,1.958955 2.1548507,1.9589553 0 0 1 -2.15485,-1.958955 2.1548507,1.9589553 0 0 1 2.15485,-1.958955 2.1548507,1.9589553 0 0 1 2.15485,1.958955 z"
               id="path198" />
            <path
               style="fill:#0c0101;fill-rule:evenodd;stroke-width:2.76064;stroke-linecap:round;stroke-linejoin:round;stroke-dasharray:none;paint-order:fill markers stroke"
               d="m 303.63867,64.757812 c -1.51946,10e-7 -2.82617,1.150423 -2.82617,2.63086 0,1.480437 1.30671,2.628906 2.82617,2.628906 1.51946,0 2.82422,-1.148469 2.82422,-2.628906 0,-1.480437 -1.30476,-2.630859 -2.82422,-2.63086 z m 0,1.341797 c 0.86072,10e-7 1.48438,0.605698 1.48438,1.289063 0,0.683365 -0.62366,1.287109 -1.48438,1.287109 -0.86072,0 -1.48437,-0.603744 -1.48437,-1.287109 0,-0.683365 0.62365,-1.289062 1.48437,-1.289063 z"
               id="path199" />
          </g>
          <path
             style="fill:#0c0101;fill-rule:evenodd;stroke-width:2.76064;stroke-linecap:round;stroke-linejoin:round;stroke-dasharray:none;paint-order:fill markers stroke"
             d="m 289.16602,55.552734 a 0.67045705,0.67045705 0 0 0 -0.69336,0.628907 l -0.58789,9.794921 a 0.67039001,0.67039001 0 0 0 0.6289,0.708985 0.67039001,0.67039001 0 0 0 0.70899,-0.628906 l 0.54882,-9.140625 14.42774,0.541015 0.92578,9.992188 a 0.67039001,0.67039001 0 0 0 0.73047,0.605468 0.67039001,0.67039001 0 0 0 0.60547,-0.728515 l -0.98047,-10.578125 a 0.67045705,0.67045705 0 0 0 -0.64258,-0.607422 z"
             id="path111" />
          <path
             style="fill:#0c0101;fill-rule:evenodd;stroke-width:2.76064;stroke-linecap:round;stroke-linejoin:round;stroke-dasharray:none;paint-order:fill markers stroke"
             d="m 297.17383,56.726562 a 0.67039001,0.67039001 0 0 0 -0.66992,0.669922 v 9.011719 a 0.67039001,0.67039001 0 0 0 0.66992,0.669922 0.67039001,0.67039001 0 0 0 0.66992,-0.669922 v -9.011719 a 0.67039001,0.67039001 0 0 0 -0.66992,-0.669922 z"
             id="path112" />
        </g>
        <g
           id="g113"
           transform="matrix(0.36138613,0,0,0.40539437,353.21789,66.200475)"
           style="stroke-width:2.31173;stroke-dasharray:none">
          <g
             id="ellipse112"
             style="stroke-width:2.31173;stroke-dasharray:none">
            <path
               style="fill-rule:evenodd;stroke-width:2.31173;stroke-linecap:round;stroke-linejoin:round;stroke-dasharray:none;paint-order:fill markers stroke"
               d="m 262.14731,49.555191 a 1.3851902,1.5583394 0 0 1 -1.38519,1.558339 1.3851902,1.5583394 0 0 1 -1.38519,-1.558339 1.3851902,1.5583394 0 0 1 1.38519,-1.558339 1.3851902,1.5583394 0 0 1 1.38519,1.558339 z"
               id="path200" />
            <path
               style="fill-rule:evenodd;stroke-width:2.31173;stroke-linecap:round;stroke-linejoin:round;stroke-dasharray:none;paint-order:fill markers stroke"
               d="m 260.76172,47.435547 c -1.10633,0 -1.94531,0.988814 -1.94531,2.11914 0,1.130327 0.83898,2.121094 1.94531,2.121094 1.10633,0 1.94726,-0.990767 1.94726,-2.121094 0,-1.130326 -0.84093,-2.11914 -1.94726,-2.11914 z m 0,1.123047 c 0.4237,0 0.82422,0.405126 0.82422,0.996093 0,0.590968 -0.40052,0.998047 -0.82422,0.998047 -0.42371,0 -0.82422,-0.407079 -0.82422,-0.998047 0,-0.590967 0.40051,-0.996093 0.82422,-0.996093 z"
               id="path201" />
          </g>
          <path
             style="fill:#0c0101;fill-rule:evenodd;stroke-width:2.31173;stroke-linecap:round;stroke-linejoin:round;stroke-dasharray:none;paint-order:fill markers stroke"
             d="m 267.80273,20.039062 c -0.47631,-0.164251 -1.00996,-0.08329 -1.38671,0.1875 -0.37676,0.27079 -0.62181,0.666342 -0.82032,1.123047 -0.397,0.91341 -0.60662,2.12883 -0.74218,3.433594 -0.19011,1.829761 -0.15143,3.233893 -0.1543,4.615234 -1.52749,0.563279 -3.21217,1.283928 -4.73828,2.462891 -2.02741,1.566224 -3.63884,3.867505 -3.56641,7.056641 -0.14245,2.69134 1.30173,4.693467 3.28125,5.794922 1.73012,0.96268 3.83839,1.185312 5.80859,0.90039 -0.002,0.673786 0.11003,1.383924 0.0742,2.023438 -0.0825,1.47311 -0.54268,2.450012 -1.24609,2.873047 -0.70341,0.423035 -1.82679,0.422146 -3.53711,-0.476563 a 0.56137502,0.56137502 0 0 0 -0.75781,0.236328 0.56137502,0.56137502 0 0 0 0.23437,0.757813 c 1.89497,0.995737 3.48658,1.139364 4.64063,0.445312 1.15405,-0.694052 1.69315,-2.095336 1.78711,-3.773437 0.0404,-0.721405 -0.082,-1.487757 -0.082,-2.242188 3.17728,-1.117671 4.90066,-3.795442 5.0332,-6.351562 0.0677,-1.30657 -0.27095,-2.587379 -1.04297,-3.59375 -0.77202,-1.006371 -1.98432,-1.715524 -3.53711,-1.876953 -0.37469,-0.03895 -0.73313,0.0071 -1.09961,0.01758 -0.0558,-0.669721 -0.20134,-1.91135 -0.19531,-2.267578 0.003,-0.200989 0.0387,-0.889899 0.0391,-1.201172 0.23959,-0.0821 0.52681,-0.212436 0.74805,-0.283203 a 0.56143116,0.56143116 0 0 0 0.0898,-0.03711 c 1.45348,-0.764989 2.7583,-2.690512 3.31055,-4.703125 0.27612,-1.006306 0.35252,-2.046371 0.0449,-2.984375 -0.3076,-0.938003 -1.04185,-1.742324 -2.18555,-2.136719 z m -0.36718,1.0625 c 0.86281,0.297535 1.27544,0.780756 1.48632,1.423829 0.21089,0.643072 0.17582,1.476512 -0.0605,2.33789 -0.47182,1.719501 -1.79152,3.494531 -2.74414,4 -0.0828,0.02662 -0.19567,0.07734 -0.28125,0.105469 0.008,-1.335543 -0.0284,-2.498142 0.13476,-4.068359 0.13002,-1.25135 0.3503,-2.404094 0.6543,-3.103516 0.152,-0.349711 0.32572,-0.570844 0.44727,-0.658203 0.12154,-0.08736 0.16754,-0.104607 0.36328,-0.03711 z m -2.77735,9.511719 c -3.5e-4,0.162363 -0.0235,0.637477 -0.0254,0.751953 -0.008,0.448787 0.14293,1.663615 0.20313,2.382813 -0.54949,0.107959 -1.09106,0.25408 -1.58985,0.523437 -1.14848,0.620217 -2.10398,1.698711 -2.76562,3.279297 -0.48197,1.151366 -0.003,2.307165 0.50976,3.119141 0.51306,0.811976 1.12305,1.36914 1.12305,1.36914 a 0.56137502,0.56137502 0 0 0 0.79297,-0.03516 0.56137502,0.56137502 0 0 0 -0.0332,-0.792969 c 0,0 -0.51146,-0.474506 -0.9336,-1.142578 -0.42213,-0.668071 -0.69259,-1.441933 -0.42383,-2.083984 0.58504,-1.397576 1.36161,-2.236409 2.26563,-2.724609 0.35353,-0.190917 0.75018,-0.287024 1.15039,-0.376954 0.11097,1.135624 0.1453,1.823899 0.2793,3.275391 0.18616,2.016557 0.19219,4.200681 0.23242,6.349609 -1.7591,0.276097 -3.70544,0.06774 -5.2207,-0.77539 -1.70027,-0.946073 -2.83899,-2.488866 -2.70899,-4.777344 a 0.56143116,0.56143116 0 0 0 0,-0.04492 c -0.0704,-2.817276 1.2871,-4.732785 3.13477,-6.160156 1.24653,-0.962978 2.6603,-1.607969 4.00976,-2.136719 z m 2.27735,4.138672 c 1.28493,0.133582 2.17429,0.675667 2.76172,1.441406 0.58742,0.76574 0.86827,1.777925 0.8125,2.853516 -0.10429,2.01136 -1.42698,4.155057 -3.95508,5.193359 -0.0494,-2.10417 -0.0452,-4.240412 -0.22461,-6.183593 -0.13799,-1.494673 -0.17312,-2.141903 -0.28321,-3.291016 0.29547,-0.0059 0.57533,-0.04625 0.88868,-0.01367 z"
             id="path113" />
        </g>
        <g
           id="g114"
           transform="matrix(0.53714625,0,0,0.49539094,314.38352,68.117392)"
           style="stroke-width:1.7153;stroke-dasharray:none">
          <g
             id="ellipse113"
             style="stroke-width:1.7153;stroke-dasharray:none">
            <path
               style="fill-rule:evenodd;stroke-width:1.7153;stroke-linecap:round;stroke-linejoin:round;stroke-dasharray:none;paint-order:fill markers stroke"
               d="m 278.75933,47.014927 a 2.0569031,1.1753731 0 0 1 -2.05691,1.175373 2.0569031,1.1753731 0 0 1 -2.0569,-1.175373 2.0569031,1.1753731 0 0 1 2.0569,-1.175373 2.0569031,1.1753731 0 0 1 2.05691,1.175373 z"
               id="path202" />
            <path
               style="fill:#0c0101;fill-rule:evenodd;stroke-width:1.7153;stroke-linecap:round;stroke-linejoin:round;stroke-dasharray:none;paint-order:fill markers stroke"
               d="m 276.70312,45.423828 c -0.63231,10e-7 -1.21064,0.140455 -1.6621,0.398438 -0.45147,0.257982 -0.8125,0.671814 -0.8125,1.193359 0,0.521545 0.36103,0.933424 0.8125,1.191406 0.45146,0.257983 1.02979,0.40039 1.6621,0.400391 0.63232,10e-7 1.20869,-0.142408 1.66016,-0.400391 0.45147,-0.257982 0.8125,-0.669859 0.8125,-1.191406 0,-0.521547 -0.36103,-0.935377 -0.8125,-1.193359 -0.45147,-0.257983 -1.02784,-0.398439 -1.66016,-0.398438 z m 0,0.832031 c 0.50369,-10e-7 0.95507,0.121644 1.24805,0.289063 0.29299,0.167419 0.39258,0.343108 0.39258,0.470703 0,0.127595 -0.0996,0.301331 -0.39258,0.46875 -0.29298,0.167419 -0.74436,0.289063 -1.24805,0.289062 -0.50367,0 -0.95506,-0.121643 -1.24804,-0.289062 -0.29298,-0.167419 -0.39258,-0.341155 -0.39258,-0.46875 0,-0.127595 0.0996,-0.303284 0.39258,-0.470703 0.29298,-0.167419 0.74437,-0.289062 1.24804,-0.289063 z"
               id="path203" />
          </g>
          <path
             style="fill:#0c0101;fill-rule:evenodd;stroke-width:1.7153;stroke-linecap:round;stroke-linejoin:round;stroke-dasharray:none;paint-order:fill markers stroke"
             d="m 279.47461,35.046875 a 0.41658165,0.41658165 0 0 0 -0.29688,0.210937 c 0,0 -0.0299,0.152334 -0.0391,0.169922 l -0.0117,-0.0039 -0.006,0.08203 c -0.0834,0.168828 -0.28812,0.506939 -0.26367,1.142578 0.005,0.121355 0.11266,0.249901 0.14258,0.376954 l -0.75391,9.564453 a 0.41654,0.41654 0 0 0 0.38282,0.449218 0.41654,0.41654 0 0 0 0.44726,-0.382812 L 279.75,38.128906 c 0.28935,0.248537 0.55061,0.513167 1.04102,0.664063 a 0.41658165,0.41658165 0 0 0 0.0625,0.01367 c 1.33909,0.1997 2.14463,0.550141 2.54687,0.896484 0.40224,0.346343 0.45575,0.639334 0.35938,1.007812 -0.19276,0.736957 -1.35356,1.696048 -2.46094,1.982422 A 0.41654,0.41654 0 0 0 281,43.201172 0.41654,0.41654 0 0 0 281.50781,43.5 c 1.36914,-0.354067 2.73037,-1.332651 3.05664,-2.580078 0.16314,-0.623713 -0.024,-1.335194 -0.61914,-1.847656 -0.59517,-0.512463 -1.54178,-0.875085 -2.96875,-1.087891 l 0.0605,0.01367 c -0.81428,-0.250548 -1.07294,-0.591652 -1.20117,-0.94336 l 0.12304,-1.564453 a 0.41658165,0.41658165 0 0 0 -0.48437,-0.443359 z"
             id="path114" />
        </g>
        <g
           id="g115"
           transform="matrix(0.42378248,0,0,0.43845107,325.93281,32.381639)"
           style="stroke-width:2.05274;stroke-dasharray:none">
          <g
             id="ellipse114"
             style="stroke-width:2.05274;stroke-dasharray:none">
            <path
               style="fill-rule:evenodd;stroke-width:2.05274;stroke-linecap:round;stroke-linejoin:round;stroke-dasharray:none;paint-order:fill markers stroke"
               d="m 268.67071,66.84935 a 2.0079291,1.4202425 0 0 1 -2.00793,1.420243 2.0079291,1.4202425 0 0 1 -2.00793,-1.420243 2.0079291,1.4202425 0 0 1 2.00793,-1.420243 2.0079291,1.4202425 0 0 1 2.00793,1.420243 z"
               id="path204" />
            <path
               style="fill:#0c0101;fill-rule:evenodd;stroke-width:2.05274;stroke-linecap:round;stroke-linejoin:round;stroke-dasharray:none;paint-order:fill markers stroke"
               d="m 266.66211,64.929687 c -0.64975,0 -1.24608,0.181771 -1.70703,0.507813 -0.46096,0.326042 -0.79883,0.829484 -0.79883,1.412109 0,0.582626 0.33787,1.084115 0.79883,1.410157 0.46095,0.326041 1.05728,0.507812 1.70703,0.507812 0.64975,0 1.24803,-0.181771 1.70898,-0.507812 0.46096,-0.326042 0.79883,-0.827531 0.79883,-1.410157 0,-0.582625 -0.33787,-1.086067 -0.79883,-1.412109 -0.46095,-0.326042 -1.05923,-0.507813 -1.70898,-0.507813 z m 0,0.998047 c 0.4592,0 0.86704,0.136234 1.13281,0.324219 0.26577,0.187985 0.37696,0.395903 0.37695,0.597656 10e-6,0.201753 -0.11118,0.409671 -0.37695,0.597657 -0.26577,0.187985 -0.67361,0.324219 -1.13281,0.324218 -0.4592,10e-7 -0.86509,-0.136233 -1.13086,-0.324218 -0.26577,-0.187986 -0.37695,-0.395904 -0.37695,-0.597657 0,-0.201753 0.11118,-0.409671 0.37695,-0.597656 0.26577,-0.187985 0.67166,-0.324219 1.13086,-0.324219 z"
               id="path205" />
          </g>
          <g
             id="ellipse115"
             style="stroke-width:2.05274;stroke-dasharray:none">
            <path
               style="fill-rule:evenodd;stroke-width:2.05274;stroke-linecap:round;stroke-linejoin:round;stroke-dasharray:none;paint-order:fill markers stroke"
               d="m 279.24908,67.045242 a 2.0079291,1.4202425 0 0 1 -2.00793,1.420243 2.0079291,1.4202425 0 0 1 -2.00793,-1.420243 2.0079291,1.4202425 0 0 1 2.00793,-1.420242 2.0079291,1.4202425 0 0 1 2.00793,1.420242 z"
               id="path206" />
            <path
               style="fill:#0c0101;fill-rule:evenodd;stroke-width:2.05274;stroke-linecap:round;stroke-linejoin:round;stroke-dasharray:none;paint-order:fill markers stroke"
               d="m 277.24023,65.126953 c -0.64974,0 -1.24607,0.181771 -1.70703,0.507813 -0.46095,0.326041 -0.79882,0.827531 -0.79883,1.410156 0,0.582626 0.33788,1.086068 0.79883,1.412109 0.46096,0.326042 1.05728,0.507813 1.70703,0.507813 0.64975,0 1.24803,-0.181771 1.70899,-0.507813 0.46095,-0.326041 0.79883,-0.829483 0.79883,-1.412109 0,-0.582625 -0.33788,-1.084115 -0.79883,-1.410156 -0.46096,-0.326042 -1.05924,-0.507813 -1.70899,-0.507813 z m 0,0.996094 c 0.4592,0 0.86704,0.136234 1.13282,0.324219 0.26577,0.187985 0.37695,0.395903 0.37695,0.597656 0,0.201753 -0.11118,0.409671 -0.37695,0.597656 -0.26578,0.187985 -0.67362,0.324219 -1.13282,0.324219 -0.4592,0 -0.86508,-0.136234 -1.13086,-0.324219 -0.26577,-0.187985 -0.37695,-0.395903 -0.37695,-0.597656 0,-0.201753 0.11118,-0.409671 0.37695,-0.597656 0.26578,-0.187985 0.67166,-0.324219 1.13086,-0.324219 z"
               id="path207" />
          </g>
          <path
             style="fill:#0c0101;fill-rule:evenodd;stroke-width:2.05274;stroke-linecap:round;stroke-linejoin:round;stroke-dasharray:none;paint-order:fill markers stroke"
             d="m 278.65039,56.017578 -9.30469,0.195313 a 0.49852784,0.49852784 0 0 0 -0.48828,0.49414 l -0.0976,9.402344 a 0.498478,0.498478 0 0 0 0.49414,0.503906 0.498478,0.498478 0 0 0 0.5039,-0.49414 l 0.0918,-8.919922 8.32226,-0.175782 0.1875,9.101563 a 0.498478,0.498478 0 0 0 0.50782,0.488281 0.498478,0.498478 0 0 0 0.48828,-0.507812 l -0.19531,-9.59961 a 0.49852784,0.49852784 0 0 0 -0.50977,-0.488281 z"
             id="path115" />
        </g>
        <g
           id="g116"
           transform="matrix(0.53714625,0,0,0.49539094,290.10521,44.512512)"
           style="stroke-width:1.7153;stroke-dasharray:none">
          <path
             style="fill:#0c0101;fill-rule:evenodd;stroke-width:1.7153;stroke-linecap:round;stroke-linejoin:round;stroke-dasharray:none;paint-order:fill markers stroke"
             d="m 301.77734,44.248047 c -0.69794,0 -1.33707,0.186013 -1.82617,0.515625 -0.4891,0.329612 -0.84375,0.831711 -0.84375,1.417969 0,0.586257 0.35465,1.090309 0.84375,1.419921 0.4891,0.329613 1.12823,0.515626 1.82617,0.515625 0.69795,10e-7 1.33707,-0.186012 1.82618,-0.515625 0.4891,-0.329612 0.84375,-0.833664 0.84375,-1.419921 0,-0.586258 -0.35465,-1.088357 -0.84375,-1.417969 -0.48911,-0.329612 -1.12823,-0.515625 -1.82618,-0.515625 z m 0,0.832031 c 0.54624,0 1.03313,0.155136 1.35938,0.375 0.32625,0.219865 0.47656,0.474347 0.47656,0.726563 0,0.252216 -0.15031,0.508651 -0.47656,0.728515 -0.32625,0.219865 -0.81314,0.373047 -1.35938,0.373047 -0.54624,0 -1.03507,-0.153182 -1.36132,-0.373047 -0.32626,-0.219864 -0.47461,-0.476299 -0.47461,-0.728515 0,-0.252216 0.14835,-0.506698 0.47461,-0.726563 0.32625,-0.219864 0.81508,-0.375 1.36132,-0.375 z"
             id="ellipse116" />
          <path
             style="fill:#0c0101;fill-rule:evenodd;stroke-width:1.7153;stroke-linecap:round;stroke-linejoin:round;stroke-dasharray:none;paint-order:fill markers stroke"
             d="m 304.55469,35.826172 a 0.41654,0.41654 0 0 0 -0.44922,0.378906 c 0,0 -0.1722,2.033499 -0.34375,4.263672 -0.17155,2.230173 -0.34375,4.624422 -0.34375,5.46875 a 0.41654,0.41654 0 0 0 0.41601,0.416016 A 0.41654,0.41654 0 0 0 304.25,45.9375 c 0,-0.722836 0.17053,-3.177847 0.3418,-5.404297 0.17126,-2.22645 0.34375,-4.257812 0.34375,-4.257812 a 0.41654,0.41654 0 0 0 -0.38086,-0.449219 z"
             id="path116" />
        </g>
        <g
           id="g120"
           transform="matrix(0.31201639,0,0,0.32925,374.16595,54.188131)"
           style="stroke-width:2.76064;stroke-dasharray:none">
          <g
             id="ellipse117"
             style="stroke-width:2.76064;stroke-dasharray:none">
            <path
               style="fill-rule:evenodd;stroke-width:2.76064;stroke-linecap:round;stroke-linejoin:round;stroke-dasharray:none;paint-order:fill markers stroke"
               d="m 288.16233,67.192162 a 2.1548507,1.9589553 0 0 1 -2.15485,1.958955 2.1548507,1.9589553 0 0 1 -2.15485,-1.958955 2.1548507,1.9589553 0 0 1 2.15485,-1.958956 2.1548507,1.9589553 0 0 1 2.15485,1.958956 z"
               id="path208" />
            <path
               style="fill:#0c0101;fill-rule:evenodd;stroke-width:2.76064;stroke-linecap:round;stroke-linejoin:round;stroke-dasharray:none;paint-order:fill markers stroke"
               d="m 286.00781,64.5625 c -1.51946,0 -2.82617,1.148469 -2.82617,2.628906 0,1.480437 1.30671,2.630859 2.82617,2.63086 1.51946,-10e-7 2.82422,-1.150423 2.82422,-2.63086 0,-1.480437 -1.30476,-2.628906 -2.82422,-2.628906 z m 0,1.341797 c 0.86072,0 1.48438,0.603744 1.48438,1.287109 0,0.683365 -0.62366,1.289062 -1.48438,1.289063 -0.86072,-10e-7 -1.48437,-0.605698 -1.48437,-1.289063 0,-0.683365 0.62365,-1.287109 1.48437,-1.287109 z"
               id="path209" />
          </g>
          <g
             id="ellipse118"
             style="stroke-width:2.76064;stroke-dasharray:none">
            <path
               style="fill-rule:evenodd;stroke-width:2.76064;stroke-linecap:round;stroke-linejoin:round;stroke-dasharray:none;paint-order:fill markers stroke"
               d="m 297.56531,67.192162 a 2.1548507,1.9589553 0 0 1 -2.15485,1.958955 2.1548507,1.9589553 0 0 1 -2.15485,-1.958955 2.1548507,1.9589553 0 0 1 2.15485,-1.958956 2.1548507,1.9589553 0 0 1 2.15485,1.958956 z"
               id="path210" />
            <path
               style="fill:#0c0101;fill-rule:evenodd;stroke-width:2.76064;stroke-linecap:round;stroke-linejoin:round;stroke-dasharray:none;paint-order:fill markers stroke"
               d="m 295.41016,64.5625 c -1.51946,0 -2.82422,1.148469 -2.82422,2.628906 0,1.480437 1.30476,2.630859 2.82422,2.63086 1.51946,-10e-7 2.82617,-1.150423 2.82617,-2.63086 0,-1.480437 -1.30671,-2.628906 -2.82617,-2.628906 z m 0,1.341797 c 0.86072,0 1.48437,0.603744 1.48437,1.287109 0,0.683365 -0.62365,1.289062 -1.48437,1.289063 -0.86073,-10e-7 -1.48438,-0.605698 -1.48438,-1.289063 0,-0.683365 0.62365,-1.287109 1.48438,-1.287109 z"
               id="path211" />
          </g>
          <g
             id="ellipse119"
             style="stroke-width:2.76064;stroke-dasharray:none">
            <path
               style="fill-rule:evenodd;stroke-width:2.76064;stroke-linecap:round;stroke-linejoin:round;stroke-dasharray:none;paint-order:fill markers stroke"
               d="m 305.79291,67.388054 a 2.1548507,1.9589553 0 0 1 -2.15485,1.958955 2.1548507,1.9589553 0 0 1 -2.15485,-1.958955 2.1548507,1.9589553 0 0 1 2.15485,-1.958955 2.1548507,1.9589553 0 0 1 2.15485,1.958955 z"
               id="path212" />
            <path
               style="fill:#0c0101;fill-rule:evenodd;stroke-width:2.76064;stroke-linecap:round;stroke-linejoin:round;stroke-dasharray:none;paint-order:fill markers stroke"
               d="m 303.63867,64.757812 c -1.51946,10e-7 -2.82617,1.150423 -2.82617,2.63086 0,1.480437 1.30671,2.628906 2.82617,2.628906 1.51946,0 2.82422,-1.148469 2.82422,-2.628906 0,-1.480437 -1.30476,-2.630859 -2.82422,-2.63086 z m 0,1.341797 c 0.86072,10e-7 1.48438,0.605698 1.48438,1.289063 0,0.683365 -0.62366,1.287109 -1.48438,1.287109 -0.86072,0 -1.48437,-0.603744 -1.48437,-1.287109 0,-0.683365 0.62365,-1.289062 1.48437,-1.289063 z"
               id="path213" />
          </g>
          <path
             style="fill:#0c0101;fill-rule:evenodd;stroke-width:2.76064;stroke-linecap:round;stroke-linejoin:round;stroke-dasharray:none;paint-order:fill markers stroke"
             d="m 289.16602,55.552734 a 0.67045705,0.67045705 0 0 0 -0.69336,0.628907 l -0.58789,9.794921 a 0.67039001,0.67039001 0 0 0 0.6289,0.708985 0.67039001,0.67039001 0 0 0 0.70899,-0.628906 l 0.54882,-9.140625 14.42774,0.541015 0.92578,9.992188 a 0.67039001,0.67039001 0 0 0 0.73047,0.605468 0.67039001,0.67039001 0 0 0 0.60547,-0.728515 l -0.98047,-10.578125 a 0.67045705,0.67045705 0 0 0 -0.64258,-0.607422 z"
             id="path119" />
          <path
             style="fill:#0c0101;fill-rule:evenodd;stroke-width:2.76064;stroke-linecap:round;stroke-linejoin:round;stroke-dasharray:none;paint-order:fill markers stroke"
             d="m 297.17383,56.726562 a 0.67039001,0.67039001 0 0 0 -0.66992,0.669922 v 9.011719 a 0.67039001,0.67039001 0 0 0 0.66992,0.669922 0.67039001,0.67039001 0 0 0 0.66992,-0.669922 v -9.011719 a 0.67039001,0.67039001 0 0 0 -0.66992,-0.669922 z"
             id="path120" />
        </g>
        <g
           id="g121"
           transform="matrix(0.53714625,0,0,0.49539094,250.73021,76.247587)"
           style="stroke-width:1.7153;stroke-dasharray:none">
          <path
             style="fill:#0c0101;fill-rule:evenodd;stroke-width:1.7153;stroke-linecap:round;stroke-linejoin:round;stroke-dasharray:none;paint-order:fill markers stroke"
             d="m 301.77734,44.248047 c -0.69794,0 -1.33707,0.186013 -1.82617,0.515625 -0.4891,0.329612 -0.84375,0.831711 -0.84375,1.417969 0,0.586257 0.35465,1.090309 0.84375,1.419921 0.4891,0.329613 1.12823,0.515626 1.82617,0.515625 0.69795,10e-7 1.33707,-0.186012 1.82618,-0.515625 0.4891,-0.329612 0.84375,-0.833664 0.84375,-1.419921 0,-0.586258 -0.35465,-1.088357 -0.84375,-1.417969 -0.48911,-0.329612 -1.12823,-0.515625 -1.82618,-0.515625 z m 0,0.832031 c 0.54624,0 1.03313,0.155136 1.35938,0.375 0.32625,0.219865 0.47656,0.474347 0.47656,0.726563 0,0.252216 -0.15031,0.508651 -0.47656,0.728515 -0.32625,0.219865 -0.81314,0.373047 -1.35938,0.373047 -0.54624,0 -1.03507,-0.153182 -1.36132,-0.373047 -0.32626,-0.219864 -0.47461,-0.476299 -0.47461,-0.728515 0,-0.252216 0.14835,-0.506698 0.47461,-0.726563 0.32625,-0.219864 0.81508,-0.375 1.36132,-0.375 z"
             id="ellipse120" />
          <path
             style="fill:#0c0101;fill-rule:evenodd;stroke-width:1.7153;stroke-linecap:round;stroke-linejoin:round;stroke-dasharray:none;paint-order:fill markers stroke"
             d="m 304.55469,35.826172 a 0.41654,0.41654 0 0 0 -0.44922,0.378906 c 0,0 -0.1722,2.033499 -0.34375,4.263672 -0.17155,2.230173 -0.34375,4.624422 -0.34375,5.46875 a 0.41654,0.41654 0 0 0 0.41601,0.416016 A 0.41654,0.41654 0 0 0 304.25,45.9375 c 0,-0.722836 0.17053,-3.177847 0.3418,-5.404297 0.17126,-2.22645 0.34375,-4.257812 0.34375,-4.257812 a 0.41654,0.41654 0 0 0 -0.38086,-0.449219 z"
             id="path121" />
        </g>
        <g
           id="rect121"
           style="stroke-width:0.884833;stroke-dasharray:none">
          <path
             style="fill-rule:evenodd;stroke-width:0.884833;stroke-linecap:round;stroke-linejoin:round;stroke-dasharray:none;paint-order:fill markers stroke"
             d="m 387.66277,93.246269 h 9.52983 c 0.20905,0 0.37735,0.168296 0.37735,0.377344 v 1.498111 c 0,0.209048 -0.1683,0.377344 -0.37735,0.377344 h -9.52983 c -0.20904,0 -0.37734,-0.168296 -0.37734,-0.377344 v -1.498111 c 0,-0.209048 0.1683,-0.377344 0.37734,-0.377344 z"
             id="path214" />
          <path
             style="fill:#0c0101;fill-rule:evenodd;stroke-width:0.884833;stroke-linecap:round;stroke-linejoin:round;stroke-dasharray:none;paint-order:fill markers stroke"
             d="m 387.66211,93.03125 c -0.32437,0 -0.5918,0.267424 -0.5918,0.591797 v 1.498047 c 0,0.324373 0.26743,0.59375 0.5918,0.59375 h 9.53125 c 0.32437,0 0.5918,-0.269377 0.5918,-0.59375 v -1.498047 c 0,-0.324373 -0.26743,-0.591797 -0.5918,-0.591797 z m 0,0.429687 h 9.53125 c 0.0937,0 0.16211,0.06839 0.16211,0.16211 v 1.498047 c 0,0.09372 -0.0684,0.164062 -0.16211,0.164062 h -9.53125 c -0.0937,0 -0.16211,-0.07034 -0.16211,-0.164062 v -1.498047 c 0,-0.09372 0.0684,-0.16211 0.16211,-0.16211 z"
             id="path215" />
        </g>
        <g
           id="g122"
           transform="matrix(0.36138613,0,0,0.40539437,365.82186,43.996649)"
           style="stroke-width:2.31173;stroke-dasharray:none">
          <g
             id="ellipse121"
             style="stroke-width:2.31173;stroke-dasharray:none">
            <path
               style="fill-rule:evenodd;stroke-width:2.31173;stroke-linecap:round;stroke-linejoin:round;stroke-dasharray:none;paint-order:fill markers stroke"
               d="m 262.14731,49.555191 a 1.3851902,1.5583394 0 0 1 -1.38519,1.558339 1.3851902,1.5583394 0 0 1 -1.38519,-1.558339 1.3851902,1.5583394 0 0 1 1.38519,-1.558339 1.3851902,1.5583394 0 0 1 1.38519,1.558339 z"
               id="path216" />
            <path
               style="fill-rule:evenodd;stroke-width:2.31173;stroke-linecap:round;stroke-linejoin:round;stroke-dasharray:none;paint-order:fill markers stroke"
               d="m 260.76172,47.435547 c -1.10633,0 -1.94531,0.988814 -1.94531,2.11914 0,1.130327 0.83898,2.121094 1.94531,2.121094 1.10633,0 1.94726,-0.990767 1.94726,-2.121094 0,-1.130326 -0.84093,-2.11914 -1.94726,-2.11914 z m 0,1.123047 c 0.4237,0 0.82422,0.405126 0.82422,0.996093 0,0.590968 -0.40052,0.998047 -0.82422,0.998047 -0.42371,0 -0.82422,-0.407079 -0.82422,-0.998047 0,-0.590967 0.40051,-0.996093 0.82422,-0.996093 z"
               id="path217" />
          </g>
          <path
             style="fill:#0c0101;fill-rule:evenodd;stroke-width:2.31173;stroke-linecap:round;stroke-linejoin:round;stroke-dasharray:none;paint-order:fill markers stroke"
             d="m 267.80273,20.039062 c -0.47631,-0.164251 -1.00996,-0.08329 -1.38671,0.1875 -0.37676,0.27079 -0.62181,0.666342 -0.82032,1.123047 -0.397,0.91341 -0.60662,2.12883 -0.74218,3.433594 -0.19011,1.829761 -0.15143,3.233893 -0.1543,4.615234 -1.52749,0.563279 -3.21217,1.283928 -4.73828,2.462891 -2.02741,1.566224 -3.63884,3.867505 -3.56641,7.056641 -0.14245,2.69134 1.30173,4.693467 3.28125,5.794922 1.73012,0.96268 3.83839,1.185312 5.80859,0.90039 -0.002,0.673786 0.11003,1.383924 0.0742,2.023438 -0.0825,1.47311 -0.54268,2.450012 -1.24609,2.873047 -0.70341,0.423035 -1.82679,0.422146 -3.53711,-0.476563 a 0.56137502,0.56137502 0 0 0 -0.75781,0.236328 0.56137502,0.56137502 0 0 0 0.23437,0.757813 c 1.89497,0.995737 3.48658,1.139364 4.64063,0.445312 1.15405,-0.694052 1.69315,-2.095336 1.78711,-3.773437 0.0404,-0.721405 -0.082,-1.487757 -0.082,-2.242188 3.17728,-1.117671 4.90066,-3.795442 5.0332,-6.351562 0.0677,-1.30657 -0.27095,-2.587379 -1.04297,-3.59375 -0.77202,-1.006371 -1.98432,-1.715524 -3.53711,-1.876953 -0.37469,-0.03895 -0.73313,0.0071 -1.09961,0.01758 -0.0558,-0.669721 -0.20134,-1.91135 -0.19531,-2.267578 0.003,-0.200989 0.0387,-0.889899 0.0391,-1.201172 0.23959,-0.0821 0.52681,-0.212436 0.74805,-0.283203 a 0.56143116,0.56143116 0 0 0 0.0898,-0.03711 c 1.45348,-0.764989 2.7583,-2.690512 3.31055,-4.703125 0.27612,-1.006306 0.35252,-2.046371 0.0449,-2.984375 -0.3076,-0.938003 -1.04185,-1.742324 -2.18555,-2.136719 z m -0.36718,1.0625 c 0.86281,0.297535 1.27544,0.780756 1.48632,1.423829 0.21089,0.643072 0.17582,1.476512 -0.0605,2.33789 -0.47182,1.719501 -1.79152,3.494531 -2.74414,4 -0.0828,0.02662 -0.19567,0.07734 -0.28125,0.105469 0.008,-1.335543 -0.0284,-2.498142 0.13476,-4.068359 0.13002,-1.25135 0.3503,-2.404094 0.6543,-3.103516 0.152,-0.349711 0.32572,-0.570844 0.44727,-0.658203 0.12154,-0.08736 0.16754,-0.104607 0.36328,-0.03711 z m -2.77735,9.511719 c -3.5e-4,0.162363 -0.0235,0.637477 -0.0254,0.751953 -0.008,0.448787 0.14293,1.663615 0.20313,2.382813 -0.54949,0.107959 -1.09106,0.25408 -1.58985,0.523437 -1.14848,0.620217 -2.10398,1.698711 -2.76562,3.279297 -0.48197,1.151366 -0.003,2.307165 0.50976,3.119141 0.51306,0.811976 1.12305,1.36914 1.12305,1.36914 a 0.56137502,0.56137502 0 0 0 0.79297,-0.03516 0.56137502,0.56137502 0 0 0 -0.0332,-0.792969 c 0,0 -0.51146,-0.474506 -0.9336,-1.142578 -0.42213,-0.668071 -0.69259,-1.441933 -0.42383,-2.083984 0.58504,-1.397576 1.36161,-2.236409 2.26563,-2.724609 0.35353,-0.190917 0.75018,-0.287024 1.15039,-0.376954 0.11097,1.135624 0.1453,1.823899 0.2793,3.275391 0.18616,2.016557 0.19219,4.200681 0.23242,6.349609 -1.7591,0.276097 -3.70544,0.06774 -5.2207,-0.77539 -1.70027,-0.946073 -2.83899,-2.488866 -2.70899,-4.777344 a 0.56143116,0.56143116 0 0 0 0,-0.04492 c -0.0704,-2.817276 1.2871,-4.732785 3.13477,-6.160156 1.24653,-0.962978 2.6603,-1.607969 4.00976,-2.136719 z m 2.27735,4.138672 c 1.28493,0.133582 2.17429,0.675667 2.76172,1.441406 0.58742,0.76574 0.86827,1.777925 0.8125,2.853516 -0.10429,2.01136 -1.42698,4.155057 -3.95508,5.193359 -0.0494,-2.10417 -0.0452,-4.240412 -0.22461,-6.183593 -0.13799,-1.494673 -0.17312,-2.141903 -0.28321,-3.291016 0.29547,-0.0059 0.57533,-0.04625 0.88868,-0.01367 z"
             id="path122" />
        </g>
      </g>
    </g>
  </g>
</svg>
